<?xml version="1.0" standalone="no"?>
<!DOCTYPE svg PUBLIC "-//W3C//DTD SVG 20010904//EN"
 "http://www.w3.org/TR/2001/REC-SVG-20010904/DTD/svg10.dtd">
<svg version="1.0" xmlns="http://www.w3.org/2000/svg"
 width="547.000000pt" height="547.000000pt" viewBox="0 0 547.000000 547.000000"
 preserveAspectRatio="xMidYMid meet">
<metadata>
Created by potrace 1.11, written by Peter Selinger 2001-2013
</metadata>
<g transform="translate(0.000000,547.000000) scale(0.100000,-0.100000)"
fill="#000000" stroke="none">
<path d="M3048 5335 c-2 -1 -23 -5 -48 -9 -67 -8 -101 -16 -122 -27 -10 -5
-18 -7 -18 -3 0 3 -6 2 -12 -4 -7 -5 -44 -10 -83 -11 -38 -1 -82 -3 -98 -6
-125 -21 -161 -30 -236 -57 -74 -27 -102 -31 -204 -34 -258 -7 -446 -74 -578
-205 -76 -76 -133 -180 -151 -279 -6 -33 -16 -60 -23 -60 -28 0 -155 -72 -196
-111 -88 -85 -129 -186 -129 -319 0 -109 33 -209 96 -297 13 -18 14 -23 3 -24
-150 -7 -461 -156 -634 -302 -33 -28 -113 -105 -179 -172 -257 -260 -347 -431
-405 -771 -58 -342 -23 -563 124 -769 46 -65 103 -121 177 -174 32 -23 56 -51
75 -90 88 -179 282 -345 492 -421 39 -15 61 -28 62 -39 6 -143 19 -201 72
-309 68 -139 195 -261 351 -338 57 -28 85 -48 101 -74 87 -137 273 -235 505
-266 14 -2 43 -6 65 -9 147 -23 485 -7 603 29 9 3 32 8 50 11 58 10 209 64
306 109 115 54 188 101 252 164 27 27 69 56 95 65 108 41 192 116 240 215 80
166 43 347 -99 488 -35 35 -58 64 -51 65 28 1 65 10 114 26 183 59 331 196
431 398 39 79 50 93 64 85 14 -7 22 2 47 53 49 98 67 171 65 267 -1 47 -4 95
-6 107 -2 11 -8 43 -12 70 -3 26 -8 57 -11 68 -2 11 -6 49 -10 85 l-6 64 49
-35 c106 -76 216 -120 339 -137 69 -9 198 -8 245 2 14 3 45 10 70 15 25 6 74
12 110 15 93 7 116 13 200 53 103 49 212 158 264 264 115 234 62 519 -134 717
-72 72 -286 191 -391 217 l-27 7 15 46 c17 58 15 165 -5 223 -8 24 -30 66 -49
92 -25 36 -32 54 -27 70 12 35 14 48 18 127 11 195 -117 394 -297 462 -47 18
-66 32 -90 67 -77 111 -205 198 -417 282 -47 18 -110 52 -141 76 -133 100
-383 203 -569 234 -62 10 -235 20 -242 14z m1095 -3257 c-2 -26 -10 -69 -19
-95 -19 -58 -65 -156 -70 -151 -2 2 5 32 16 66 23 74 55 239 61 317 1 17 5 4
9 -30 3 -33 5 -81 3 -107z"/>
</g>
</svg>
