<svg xmlns="http://www.w3.org/2000/svg" viewBox="0 0 546.32 519.35"><defs><style>.cls-1,.cls-2{fill:#231f20;}.cls-1{stroke:#231f20;stroke-miterlimit:10;}</style></defs><title>braidout-hairAsset 11</title><g id="Layer_2" data-name="Layer 2"><g id="Braidout"><g id="HAIR"><path class="cls-1" d="M374.38,172.31c.17,24.29,21.05,46.67,45.28,48.5"/><path class="cls-2" d="M184,362.89c-.24-15.13-1-31.65-11-43-8.36-9.49-21.46-13.21-34-15-8.77-1.23-17.77-1.72-26.44.08"/><path class="cls-2" d="M218.47,362.89c-.21-12.19-.85-24.86-4.15-36.64-4.8-17.08-14.68-30.36-28.88-40.73-9.4-6.87-21.33-11.07-32.74-13.14-16.92-3.06-32.35-3.84-49.31-.64-8.1,1.53-16.59,9-20.62,15.86-4.32,7.39-6.16,18.29-3.47,26.58s7.87,16.41,15.85,20.62c8.59,4.54,17,5.28,26.59,3.48,1.23-.26,2.48-.47,3.73-.64l-9.17,1.23a90.79,90.79,0,0,1,22.7.56l-9.17-1.23a85.07,85.07,0,0,1,19.25,4.86l-8.24-3.48a48.16,48.16,0,0,1,10.37,6l-7-5.4a42.68,42.68,0,0,1,5.35,5.32l-5.39-7a41.77,41.77,0,0,1,5.34,9.25l-3.47-8.24A64.47,64.47,0,0,1,149.52,353l-1.23-9.17a165.75,165.75,0,0,1,1.18,19c.3,18,15.64,35.34,34.5,34.5,18.42-.82,34.83-15.17,34.5-34.5Z"/><path class="cls-2" d="M263.51,413.68c2.44-16.8,4.88-33.8,3.2-50.7s-7.92-33.93-20.41-45.42c-13.15-12.09-31.4-16.65-49-19.78-6.81-1.21-14-2.25-20.52,0-7.59,2.57-13.08,9-18.16,15.22-3.28,4-6.69,8.27-7.29,13.39-.91,7.71,5.14,14.88,12.31,17.86s15.21,2.74,23,2.42c3.62-.15,7.52-.24,10.57,1.73,2.24,1.44,3.7,3.8,5.09,6.07,3.45,5.65,7,11.58,7.47,18.18s-3.17,14-9.63,15.46a30.24,30.24,0,0,1,8.53,18.5"/><path class="cls-2" d="M296.78,422.85c3.89-26.89,7.5-53.18,1.42-80.09C292.47,317.37,277,294.61,254.71,281c-10.3-6.27-22.13-10.61-33.81-13.52-11.39-2.84-24-5.69-35.67-5.57-17.64.17-33.64,7.73-45.7,20.49-9.26,9.79-18.62,21.26-21.45,34.74-4.7,22.39,6.59,45.53,26.83,56.21,9.81,5.18,19.91,7.19,30.91,7.82,5.69.33,11.42-.55,17.08.09l-9.17-1.23a12.49,12.49,0,0,1,2.94.83l-8.24-3.48a9.44,9.44,0,0,1,2.62,1.7l-7-5.4a15.38,15.38,0,0,1,2.09,2.4l-5.39-7a81.41,81.41,0,0,1,7.24,13l-3.48-8.24a36.11,36.11,0,0,1,1.79,6.29L175.07,371a22.65,22.65,0,0,1,0,5.64l1.23-9.17a24.81,24.81,0,0,1-1.12,3.87l3.48-8.24a22.32,22.32,0,0,1-2,3.41l5.39-7a13,13,0,0,1-1.77,1.87l7-5.4a14.91,14.91,0,0,1-3.29,1.94l8.24-3.48-1.25.36c-25.44,7.45-33,38.66-15.22,57.67a28.16,28.16,0,0,1,2.11,2.39l-5.39-7a37.58,37.58,0,0,1,4.08,6.84l-3.48-8.24a37.3,37.3,0,0,1,2.15,7.68L174,405l.18,1.58c1.05,9.43,3.14,17.44,10.1,24.4,6,6,15.8,10.49,24.4,10.1,8.92-.4,18.17-3.33,24.39-10.1,5.79-6.31,11.1-15.49,10.11-24.4-1.17-10.36-2.57-17.3-7-26.67a65.8,65.8,0,0,0-11.59-16.22L209.3,421.34a48.44,48.44,0,0,0,33.25-34.23c4-14.85.28-29.46-6.34-42.85S219.64,318.89,205,314.37c-11-3.4-21.65-1.29-32.77-2.47l9.17,1.23a40.42,40.42,0,0,1-8.59-2.19l8.24,3.48a29.07,29.07,0,0,1-5.08-3l7,5.4a27.14,27.14,0,0,1-4.11-4.19l5.39,7a25.56,25.56,0,0,1-2.11-3.75l3.47,8.24a21.23,21.23,0,0,1-1-4.1l1.23,9.18a13.67,13.67,0,0,1,0-2.86l-1.24,9.17a23,23,0,0,1,1.22-4.4l-3.47,8.24a37.2,37.2,0,0,1,4.11-6.56l-5.4,7c4-5,8.08-10,13.17-13.93l-7,5.39a35.26,35.26,0,0,1,5.46-3.14l-8.24,3.48a30.44,30.44,0,0,1,6.5-1.67l-9.17,1.24a49.77,49.77,0,0,1,10.35.3L183,330.22c11.92,1.74,23.89,4.32,35.09,8.82l-8.24-3.47a73.61,73.61,0,0,1,15.34,8.66l-7-5.39A60.32,60.32,0,0,1,228.28,349l-5.39-7a69.92,69.92,0,0,1,7.88,13.68l-3.48-8.24A88.1,88.1,0,0,1,233.07,369l-1.23-9.17c1.84,14.73.5,29.49-1.45,44.14l1.23-9.17q-.66,4.86-1.37,9.71c-1.39,9.57-1.61,17.89,3.47,26.59,4.19,7.16,12.4,14,20.62,15.85,8.83,2,18.75,1.58,26.59-3.47,7-4.52,14.6-12,15.85-20.62Z"/><path class="cls-2" d="M163.63,193.57c-.51,19.52,5,38.83,4.44,58.35s-9.94,41.16-28.69,46.63"/><path class="cls-2" d="M129.13,193.57c-.36,21.8,6.56,43.42,3.88,65.22l1.23-9.17A69.31,69.31,0,0,1,130,265.76l3.48-8.24a54.25,54.25,0,0,1-6.78,11.74l5.39-7a43.42,43.42,0,0,1-6.51,6.49l7-5.4a38.31,38.31,0,0,1-6.75,4l8.24-3.48c-1.26.52-2.49,1-3.79,1.37-8.47,2.68-16.07,8.09-20.62,15.86-4.32,7.39-6.16,18.29-3.48,26.58,5.59,17.26,24,29.91,42.44,24.1,27.15-8.56,46.5-32.65,51.67-60.42a132.89,132.89,0,0,0,1.21-40.2c-1.43-12.53-3.51-25-3.3-37.63.29-18.06-16.08-35.33-34.5-34.5-18.95.85-34.18,15.15-34.5,34.5Z"/><path class="cls-2" d="M125.37,179.33C77.42,193.13,45.49,234.07,52.32,273c2.65,15.16,13.19,31.55,32.57,35.16,20.23,3.76,42.16-11.63,39.07-27.42S94,255.18,76.12,263.33s-19.58,30.9-3,40.55c19.88,11.56,51.35.18,60.29-17.69s1.14-38.18-10.82-55c-2.25-3.16-4.93-6.46-9.26-7.86-5.73-1.84-12.24.25-17.67,2.56-22.7,9.63-42.6,23.94-53.38,42s-11.54,40.14,1.07,57.52c7.46,10.29,20.56,19,35.89,19.63s31.23-9.7,29.18-21.36a8.27,8.27,0,0,0-5.66-6.74,14.33,14.33,0,0,0-5.77-.22c-19.64,2.4-31.86,20-27.91,34.9s20.3,26.55,38.6,32.53,38.51,7.29,58.33,8.52c8.46.52,19.55-.29,21.69-6.59,1.57-4.63-3.36-9.19-8.91-11.38-20.49-8.11-47.7,8.46-45.2,26.05s28.83,29.6,51.31,25.67c7.47-1.3,14.72-4.14,19.4-8.79,10-9.92,4.42-25.83-9.23-32.7-12.84-6.47-31.25-5.49-42.82,2.27s-15.26,21.63-8.61,32.26,22,16.94,37.35,18.07,30.63-2.21,44.89-6.63c8-2.5,17-6.54,17.62-13.17.66-7.29-9.13-12.3-17.77-15.37-16.33-5.82-33.91-10.74-51.87-9.8s-36.31,9.11-41.66,22.29c-7,17.22,11,35.66,33.08,41.94s46.46,3.68,69.71,1c7.75-.9,17-2.69,19.37-8.41,2.5-5.9-4.28-11.79-11.45-14.66-23.81-9.56-57.26.75-65.83,20.29-2.67,6.07-3,13.23,1.86,18.46,4.2,4.56,11.44,6.82,18.45,8.32,33.51,7.18,71.27,1.46,98.72-14.94,5.86-3.51,11.8-8.77,9.7-14.25-1-2.66-3.81-4.72-6.81-6.26-14.3-7.34-35.91-4.27-45.84,6.5,13.67,6.1,30.18,12.34,44.53,7.25,13.64-4.84,18.26-20.33,8.71-29.23s-30.25-8.43-39.08.9c12.78,9.79,30.36,15.81,48.4,16.58,4.06.17,8.58-.05,11.44-2.26,5.15-4,1-10.88-4.37-14.66-24.41-17.09-62.86-10.21-94.26-2.31"/><path class="cls-2" d="M116.2,146.07C73.08,158.77,34,190.22,20.93,234.41a94.39,94.39,0,0,0,5.48,68.24C38.28,327,65.07,344,92.32,343.21c27.87-.85,60.12-19,65.12-48.7,3-18-1.64-35.07-14.74-48.11a71.13,71.13,0,0,0-32.84-18.08c-27.88-6.61-60.19,1.62-75.09,27.93a57.27,57.27,0,0,0,20.95,77.42c23.82,14,53.07,10.88,76.93-1,24.11-12,40.28-37.86,39.11-65-.67-15.58-5.47-30.17-12.95-43.78-8.11-14.76-19-28.26-35.6-33.6-17.83-5.73-35.06.94-51.06,8.51-11.63,5.5-21.94,12.55-32,20.5-18.21,14.35-34,35.31-38.4,58.51-5.41,28.71,1.74,59.9,24.4,79.8,24.6,21.6,58.24,28.67,88,13.32,16.32-8.41,28.18-25.31,28.88-43.8.92-24.5-19.17-45.5-43.84-45.07-28.76.49-57.58,21.29-63.68,50.11C29,363,46.39,389.52,71.72,405.43,94.54,419.76,122,423.76,148.33,426c12.79,1.08,24.8,1.82,37.54-.27a43.35,43.35,0,0,0,36.6-42.08c.26-22.25-19.86-39.61-40.28-43.77-16.45-3.35-31.59-.74-46.77,5.9-25.32,11.08-43.49,41-34,68.48,8.67,25.05,32.74,42.07,58.57,45.81,14.6,2.11,29.26,2.36,43.37-2.85,17.55-6.49,33-18.3,38.4-37,9.42-32.4-14.65-63.93-45.8-71.47-30.35-7.34-63.9,2.23-81.43,29C106,390.9,103.53,409,108.17,424c4.76,15.34,15.78,27.89,29.57,35.9,25.64,14.89,56.57,14.5,84.61,7.87,14.72-3.48,29.75-8.33,41.21-18.6,17-15.24,18.67-40.68,4.92-58.48-9.72-12.57-24-18.35-38.67-23.27a192.8,192.8,0,0,0-41.17-8.81c-26.16-2.82-56,4.49-75.06,23.5-11,11-18.16,26.58-17.32,42.27.85,16,7.74,30,18.58,41.56,19.32,20.7,48.27,28.12,75.61,29.22,11.48.46,23-.44,34.4-1.65,14.22-1.49,29.52-2.07,42.21-9.53a46,46,0,0,0,20.59-25.34c5-14.6-.58-29.71-10.07-40.91-8.95-10.55-23.41-17.09-36.92-19.21-23.36-3.67-49.34-.86-69.2,13.14-12.78,9-22.08,19.49-27.63,34.27-6.81,18.11-2.21,40.4,12.32,53.5,11.27,10.17,25.54,14.92,40.27,17.21,13.05,2,26.08,3.31,39.29,2.52,25.35-1.53,49.83-7.59,72.39-19.39,17.14-9,32.52-23.81,32.66-44.57.15-22.75-18-38.08-38.08-44.25-24.77-7.62-55.67-1.22-73.89,17.59a34,34,0,0,0-9.49,29c1.3,9.7,6.9,21,16.47,25.2,21.73,9.62,43.82,17.42,67.89,11.68,23.63-5.64,42.64-27.51,42.3-52.26-.7-51.72-70-67.37-103-34.68-7.82,7.76-10.93,18.26-9.49,29,1.54,11.46,7.46,18.46,16.48,25.2,13,9.7,29.42,16.27,45.39,18.89,12.22,2,24.26,3.64,36.5.79C350,477,364,460.42,364,441.57c0-26.38-23.23-42.66-45.76-50.17-14.28-4.76-30.46-5.75-45.43-4.66-18,1.31-35.92,4.77-53.45,9.15s-29.74,25-24.1,42.44c5.87,18.13,23.67,28.79,42.44,24.1a320.78,320.78,0,0,1,34-6.86l-9.18,1.24c11.26-1.45,22.6-2,33.89-.54L287.29,455a73.16,73.16,0,0,1,16.58,4.36l-8.24-3.47a51.65,51.65,0,0,1,10.9,6.18l-7-5.39a28.32,28.32,0,0,1,3,3l-5.4-7a19.08,19.08,0,0,1,2,3.39l-3.48-8.24a7.9,7.9,0,0,1,.56,2.3L295,441v1.12l1.24-9.17-.22,1.09,3.48-8.24a5.48,5.48,0,0,1-1.15,2l5.39-7-1,.9,7-5.39a9.3,9.3,0,0,1-2.42,1.31l8.24-3.48a15.66,15.66,0,0,1-2.85.72l9.17-1.24a61.06,61.06,0,0,1-14.85-.53l9.18,1.23a97.7,97.7,0,0,1-23-6.22l8.24,3.48A82.08,82.08,0,0,1,284.75,402l7,54.19a27.86,27.86,0,0,1,2.52-2.21l-7,5.4a28.58,28.58,0,0,1,5.12-2.8l-8.24,3.47a38.59,38.59,0,0,1,7.18-1.91l-9.17,1.24a40.33,40.33,0,0,1,10.18-.06l-9.17-1.23a34.71,34.71,0,0,1,8.3,2.31l-8.24-3.48a29.85,29.85,0,0,1,4,2.32l-7-5.39a22.68,22.68,0,0,1,3.41,3.23l-5.39-7a20.36,20.36,0,0,1,2.32,4l-3.48-8.25a22.17,22.17,0,0,1,.87,3.22l-1.23-9.17a20.87,20.87,0,0,1,.06,4.4l1.23-9.17a22.37,22.37,0,0,1-1.14,4.34l3.48-8.24a24.85,24.85,0,0,1-2.28,4.06l5.39-7a25.35,25.35,0,0,1-4.33,4.33l7-5.4a29.17,29.17,0,0,1-4.58,2.6l8.24-3.48a37.53,37.53,0,0,1-7.8,2.06l9.17-1.23a49.31,49.31,0,0,1-11.77-.2l9.17,1.23A96.87,96.87,0,0,1,267,421.64l8.24,3.48q-2.34-1-4.65-2l7,54.19a34.34,34.34,0,0,1,3.6-3.22l-7,5.39a39.08,39.08,0,0,1,6.63-3.77l-8.24,3.48A48.56,48.56,0,0,1,284.32,476l-9.17,1.24a51.52,51.52,0,0,1,12.41.08l-9.17-1.23a44,44,0,0,1,9.08,2.45l-8.25-3.48a31.61,31.61,0,0,1,6,3.37l-7-5.39a13.43,13.43,0,0,1,1.92,1.85l-5.4-7a7.72,7.72,0,0,1,1.27,2.14l-3.47-8.25.34,1.26-1.23-9.17a6.47,6.47,0,0,1-.08,2.48l1.23-9.17-.38,1.21,3.48-8.24a10.58,10.58,0,0,1-1.32,2.34l5.39-7a27.5,27.5,0,0,1-4.3,4.26l7-5.39a90.36,90.36,0,0,1-18,9.78l8.24-3.48a143.19,143.19,0,0,1-34.71,9.46l9.17-1.23a152.46,152.46,0,0,1-40.15.12l9.17,1.23c-7.08-1-14.2-2.31-20.84-5.05l8.24,3.48a33.47,33.47,0,0,1-5.29-3.05l7,5.39a23.31,23.31,0,0,1-3.17-3.19l5.4,7a14.07,14.07,0,0,1-1.54-2.66l3.48,8.25a20.69,20.69,0,0,1-1.12-4.29l1.23,9.17a25.57,25.57,0,0,1,.11-4.46l-1.23,9.18a29.52,29.52,0,0,1,1.7-5.83l-3.47,8.24a32.92,32.92,0,0,1,3.35-5.66l-5.4,7a40.61,40.61,0,0,1,6.5-6.54l-7,5.39a55.58,55.58,0,0,1,11.83-6.85l-8.24,3.48a68.84,68.84,0,0,1,15.3-4.19l-9.17,1.23a65.55,65.55,0,0,1,17.42-.07L222.31,465a55.85,55.85,0,0,1,11.45,3l-8.24-3.47a34.32,34.32,0,0,1,7.13,4.09l-7-5.39a23.82,23.82,0,0,1,3.13,3.22l-5.4-7a10,10,0,0,1,1.28,2.36l-3.48-8.24.34,1.22-1.23-9.17a6.57,6.57,0,0,1,0,2.5l1.23-9.18-.4,1.27,3.48-8.24a7.67,7.67,0,0,1-1.12,1.86l5.39-7a9.51,9.51,0,0,1-1.6,1.57l7-5.4a22,22,0,0,1-3.14,1.86l8.25-3.48a47.4,47.4,0,0,1-12.13,3l9.17-1.23c-18.84,2.3-37.95,4.32-56.89,2.05l9.17,1.23A86.84,86.84,0,0,1,167.14,421l8.24,3.48a66,66,0,0,1-13-7.54l7,5.39a51.32,51.32,0,0,1-8-7.77l5.39,7a36.82,36.82,0,0,1-4.56-7.66l3.48,8.24a29.52,29.52,0,0,1-1.58-5.77l1.24,9.17a25.14,25.14,0,0,1,0-5.88l-1.23,9.17a27.49,27.49,0,0,1,1.3-4.72L162,432.32a29.59,29.59,0,0,1,3.17-5.48l-5.4,7a38.4,38.4,0,0,1,5.67-5.66l-7,5.4a52.62,52.62,0,0,1,11.4-6.47l-8.25,3.48a71.9,71.9,0,0,1,16.7-4.27l-9.17,1.24a95,95,0,0,1,23.16.49l-9.17-1.23a164.33,164.33,0,0,1,37.59,10.49l-8.24-3.48a44.36,44.36,0,0,1,8.77,4.91l-7-5.39A24.15,24.15,0,0,1,217,436l-5.39-7a14.26,14.26,0,0,1,1.71,2.95l-3.48-8.24.3,1.06-1.23-9.17a7.5,7.5,0,0,1,.12,2.22l1.23-9.17a7.89,7.89,0,0,1-.54,2.24l3.48-8.25a9.42,9.42,0,0,1-1.15,2l5.39-7a19.81,19.81,0,0,1-2.66,2.68l7-5.39a37.37,37.37,0,0,1-7.55,4.19l8.24-3.48a139.35,139.35,0,0,1-31.53,8l9.17-1.23a93.55,93.55,0,0,1-23.82.15l9.17,1.24a69.82,69.82,0,0,1-15.09-4.05l8.24,3.48a51.17,51.17,0,0,1-10.19-5.71l7,5.39a37.09,37.09,0,0,1-5.82-5.66l5.4,7a28.25,28.25,0,0,1-3.29-5.65l3.48,8.24a27.63,27.63,0,0,1-1.3-4.92l1.23,9.17a26.92,26.92,0,0,1,.05-6.28L173.88,414a29.1,29.1,0,0,1,1.82-6.14l-3.47,8.24a31.87,31.87,0,0,1,3.51-5.67l-5.4,7a34.83,34.83,0,0,1,5.12-4.89l-7,5.4a39.85,39.85,0,0,1,7.5-4.17l-8.24,3.48a50.79,50.79,0,0,1,10.07-2.71l-9.17,1.24a54.32,54.32,0,0,1,13.72-.09l-9.17-1.23a48.19,48.19,0,0,1,10.09,2.63L175,413.58a36.34,36.34,0,0,1,7.36,4.17l-7-5.39a33.25,33.25,0,0,1,4.71,4.63l-5.4-7a29.22,29.22,0,0,1,3.21,5.34l-3.47-8.24a25.59,25.59,0,0,1,1.55,5.7l-1.24-9.17a22.71,22.71,0,0,1-.07,4.59l1.23-9.17a20.92,20.92,0,0,1-1.33,4.43l3.48-8.25a25.13,25.13,0,0,1-1.87,3.11l5.39-7a27.65,27.65,0,0,1-3.84,3.81l7-5.4a37.93,37.93,0,0,1-6.5,3.77l8.25-3.48a53.55,53.55,0,0,1-12.16,3.37l9.17-1.23a59.14,59.14,0,0,1-14.32.08l9.17,1.24a61.86,61.86,0,0,1-14.94-4l8.24,3.48a50.62,50.62,0,0,1-10.24-5.9l7,5.4a37,37,0,0,1-6-6l5.4,7a29.1,29.1,0,0,1-2.89-4.86l3.48,8.24a25.28,25.28,0,0,1-1.53-5.3l1.23,9.17a21.86,21.86,0,0,1,0-4.28l-1.23,9.18a22.56,22.56,0,0,1,1.44-5.17l-3.48,8.24a29.06,29.06,0,0,1,2.88-4.83l-5.39,7a36.07,36.07,0,0,1,6-5.91l-7,5.39a44.53,44.53,0,0,1,8.94-5.06L162,408.83a44.77,44.77,0,0,1,10.24-2.67l-9.17,1.24a39.55,39.55,0,0,1,9.29.12l-9.18-1.23a36.79,36.79,0,0,1,6.45,1.74l-8.24-3.48a26.29,26.29,0,0,1,5.52,3.22l-7-5.39a13.57,13.57,0,0,1,2.05,2.1l-5.39-7a8.42,8.42,0,0,1,1.28,2.33l-3.47-8.24.29,1.22-1.23-9.17,0,1.24,1.23-9.17-.27,1.26,3.48-8.24a6.34,6.34,0,0,1-.9,1.73l5.39-7a7.63,7.63,0,0,1-1.36,1.42l7-5.39a16.71,16.71,0,0,1-2.77,1.62l8.24-3.48a28.7,28.7,0,0,1-6,1.53L176.7,358c-6.35.77-12.69.17-19-.26-7.75-.52-15.49-1.18-23.2-2.17l9.17,1.23c-11.71-1.61-23.29-4.06-34.23-8.62l8.24,3.48a81.21,81.21,0,0,1-16-9.18l7,5.39a55.44,55.44,0,0,1-9.15-8.9l5.4,7a39.87,39.87,0,0,1-4.7-8l3.48,8.24a32.42,32.42,0,0,1-1.72-5.93l1.24,9.17a27.79,27.79,0,0,1,0-6.88l-1.23,9.18a31.23,31.23,0,0,1,1.92-6.76l-3.48,8.24a34.88,34.88,0,0,1,3.69-6.26l-5.4,7a36.72,36.72,0,0,1,6.31-6.21l-7,5.39a39.6,39.6,0,0,1,6.92-4L96.6,352.6a40.23,40.23,0,0,1,9.58-2.55L97,351.28a24.64,24.64,0,0,1,4.38-.08L92.21,350a8.34,8.34,0,0,1,2.76.84l-8.24-3.48,1.17.75-7-5.39,1,.91-5.39-7a8.44,8.44,0,0,1,1.41,2.17l-3.47-8.25a9.93,9.93,0,0,1,.73,2.38l-1.23-9.17a17.29,17.29,0,0,1,.1,3.45L75.27,318a18.87,18.87,0,0,1-.87,3.3l3.48-8.24a21.94,21.94,0,0,1-2.48,4.1l5.4-7a30.3,30.3,0,0,1-3.73,3.61l7-5.39a37.07,37.07,0,0,1-7.37,4.21l8.24-3.48a43.16,43.16,0,0,1-8.71,2.36l9.17-1.23a42.41,42.41,0,0,1-11-.14l9.18,1.23a51,51,0,0,1-10.57-3l8.24,3.48a54.85,54.85,0,0,1-10.48-6l7,5.39a54.1,54.1,0,0,1-9.17-9l5.39,7a55.66,55.66,0,0,1-6.34-10.86l3.48,8.24a55,55,0,0,1-3.29-11.88l1.23,9.17A56.9,56.9,0,0,1,69,290.09l-1.23,9.17a62,62,0,0,1,4.15-15l-3.47,8.24A72.07,72.07,0,0,1,77,278.17l-5.39,7a100.18,100.18,0,0,1,17.31-17l-7,5.39a147.92,147.92,0,0,1,31.16-17.84l-8.24,3.48a49.18,49.18,0,0,1,9.55-3l-9.17,1.23a29,29,0,0,1,4.93-.22L101,256a20,20,0,0,1,4.58,1.17l-8.24-3.47a13.86,13.86,0,0,1,2.44,1.42l-7-5.4a27.18,27.18,0,0,1,3.86,3.8l-5.4-7a93.87,93.87,0,0,1,11.69,19.85l-3.48-8.24a65.54,65.54,0,0,1,4.08,14.05L102.3,263a47.92,47.92,0,0,1,.25,11l1.23-9.17a41.07,41.07,0,0,1-2.91,10.71l3.48-8.24a35.92,35.92,0,0,1-3.68,6.2l5.4-7a43.12,43.12,0,0,1-6.7,6.67l7-5.4a55.44,55.44,0,0,1-12.08,7l8.24-3.48a59.1,59.1,0,0,1-13.91,3.67l9.18-1.23a51.22,51.22,0,0,1-11.61,0l9.18,1.23a40.71,40.71,0,0,1-9.7-2.62l8.24,3.48a33.4,33.4,0,0,1-6.49-3.84l7,5.39a28.42,28.42,0,0,1-4.11-4.24l5.4,7A26.17,26.17,0,0,1,93,275.2l3.48,8.24a26.59,26.59,0,0,1-1.36-5.26l1.24,9.17a26.24,26.24,0,0,1,0-5.39l-1.23,9.17a26.43,26.43,0,0,1,1.75-6.3l-3.48,8.24a28.64,28.64,0,0,1,2.91-4.84l-5.4,7a30.31,30.31,0,0,1,4.2-4.2l-7,5.4a31.75,31.75,0,0,1,6.62-3.8l-8.24,3.48a38.6,38.6,0,0,1,8.6-2.17l-9.17,1.23a47.76,47.76,0,0,1,10.35.1L87.05,294a49.29,49.29,0,0,1,11.14,3L90,293.53a41.27,41.27,0,0,1,8.38,4.81l-7-5.4a30.6,30.6,0,0,1,4.74,4.71l-5.39-7a24.08,24.08,0,0,1,2.61,4.54L89.82,287a21.27,21.27,0,0,1,1.05,4.1l-1.23-9.17a21.82,21.82,0,0,1,0,3.43l1.24-9.17a22.17,22.17,0,0,1-1.52,5.55l3.48-8.24a29.52,29.52,0,0,1-2.46,4.16l5.4-7a34.87,34.87,0,0,1-5.41,5.52l7-5.39a42.14,42.14,0,0,1-8.33,4.94l8.25-3.47A45.35,45.35,0,0,1,87.56,275l9.17-1.23a41.29,41.29,0,0,1-10.36.09l9.17,1.23a44.12,44.12,0,0,1-9.8-2.76L94,275.85A42.81,42.81,0,0,1,85.84,271l7,5.39a45.22,45.22,0,0,1-7.3-7.4l5.4,7a50.83,50.83,0,0,1-5.7-9.88l3.48,8.24a54.42,54.42,0,0,1-3.5-13l1.24,9.17a67.51,67.51,0,0,1,0-16l-1.23,9.17A74.67,74.67,0,0,1,90,245.61l-3.48,8.24a89.56,89.56,0,0,1,11.16-19.16l-5.39,7A106.54,106.54,0,0,1,111,223.12l-7,5.4a120,120,0,0,1,25.61-14.77l-8.25,3.48a137.24,137.24,0,0,1,13.18-4.63c17.3-5.1,29.91-24.49,24.1-42.44-5.68-17.53-23.9-29.56-42.44-24.09Z"/><path class="cls-2" d="M237.71,87.62c8.65-2.55,11.48-15,6-22.22s-16.33-8.65-24.55-5-14,11.5-17.44,19.83c-1.5,3.61-2.54,8-.22,11.2,1.46,2,3.93,2.93,6.33,3.48a30.44,30.44,0,0,0,30.83-11.72,65.65,65.65,0,0,0-35.65-4c-4,.67-8.27,2-10.39,5.41-4.51,7.3,4.27,15.54,12,19.25a212.7,212.7,0,0,0,123.75,18.3c9-1.4,20.14-6,19.75-15.13-.34-7.73-9-12.05-16.62-13.7a91.71,91.71,0,0,0-44.2,1.3c-7.48,2.1-16.14,10.22-10.91,16,1.73,1.9,4.43,2.52,7,3a153.21,153.21,0,0,0,61.84-1.72c8.22-1.94,17.77-6.31,18.48-14.73.59-7-5.42-12.63-11.37-16.3a78.92,78.92,0,0,0-39.61-11.69c-3.66-.07-8.17.7-9.34,4.16-1.5,4.43,3.87,8,8.4,9.18a62.38,62.38,0,0,0,37-1.73c6.42-2.34,13.48-8.11,11.29-14.58-1.65-4.89-7.6-6.64-12.73-7.28-10.4-1.3-24.22,1.69-25.42,12.1-.88,7.71,6.21,13.88,13,17.63a94.76,94.76,0,0,0,62.63,10.09c8.42-1.57,18.51-7.16,17-15.59-.94-5.18-6-8.41-10.7-10.83a216,216,0,0,0-74-22.53c-11.54-1.33-27.43,1.9-27.68,13.52C301.92,74,315.52,78.6,326.17,80c14.5,1.89,31.27,3.07,41.63-7.25,2.38-2.37,4.31-5.42,4.41-8.77.18-6-5.24-10.51-10.37-13.61a113.81,113.81,0,0,0-46.5-15.65c-6.26-.68-12.87-.76-18.55,2-9.65,4.66-14.05,16.72-12.45,27.32s8,19.86,15.27,27.76c29,31.55,73.83,46.66,116.46,42.44,9.47-.94,19.61-3.17,25.86-10.35s5.59-20.62-3.22-24.23a17,17,0,0,0-9-.69c-18.65,2.86-31.19,25.67-23.62,42.95s32.83,23.54,47.59,11.77c-7.55-3.3-16.86.32-21.89,6.83s-6.42,15.21-5.92,23.43c.42,7,2.28,14.26,7.28,19.16s13.74,6.37,19,1.72,3.24-15.33-3.68-16.34c-3.25-.47-6.42,1.09-9.29,2.68-12,6.64-24.74,20.23-17.86,32.08,2.14,3.7,5.88,6.21,9.74,8a45.56,45.56,0,0,0,30.73,2.84,16.86,16.86,0,0,0,6.75-3.13c3.55-3,4.67-8.11,4.09-12.72-1.88-14.75-20.5-23.76-34.09-17.74s-19.88,23.63-15.13,37.71,18.68,23.94,33.38,26.12c8.87,1.32,18.61-.09,25.34-6s9.14-17,3.62-24.12a7.83,7.83,0,0,0-3.27-2.63c-3.74-1.4-7.75,1.86-9.34,5.52-4.21,9.72,3.64,22,14.12,23.63s21-6.44,23.75-16.67-1.57-21.58-9.38-28.73c-13.17-12.06-33.45-12.58-48.15-22.72-13.59-9.38-20.49-25.48-29.67-39.21a124.34,124.34,0,0,0-65.22-49c12.18,2.72,20.77-14.58,15.41-25.86S356.05,61.69,344.47,57c-18.71-7.54-37.78-15.17-57.88-16.85S244.8,43.62,231,58.31c4.39,2.64,11-1.73,10.29-6.81a85.44,85.44,0,0,0-33-.66C196,53,182,61.51,183.71,73.82c.47,3.28,2.08,6.36,2.27,9.67.27,4.84-2.49,9.24-4.63,13.58s-3.67,9.74-1.11,13.85,10.63,3.62,10.85-1.22a36.2,36.2,0,0,0-32.71-7.52,14.65,14.65,0,0,0-6.92,3.63C146.93,110.57,149,119,154,123.27s11.79,5.62,18.26,6.77"/><path class="cls-2" d="M246.88,120.89c16-5.67,28.24-17.2,32.54-34,4.21-16.53-.35-33.06-11.28-45.84-9.57-11.18-25.2-17-39.69-17-15.51,0-29,6.49-40.51,16.51-9.19,8-16.35,20.41-20,32-6.8,21.58,2.83,44.26,23.78,53.1a59.93,59.93,0,0,0,41.07,1.79A65.48,65.48,0,0,0,250,119.23c8.15-5.68,12.47-10.63,18.45-18.57,6.43-8.53,5.62-21.53,1.74-30.71-4.45-10.55-12-15.86-22.35-20-19.19-7.61-44.19-9-63.39-.9-16.24,6.86-27.76,22.12-27.54,40.22.18,15.52,8.87,28.72,20.75,37.89,8.64,6.68,18.17,10.47,28.26,14.62a214.83,214.83,0,0,0,22.47,7.83,259,259,0,0,0,53.39,9c18.43,1.27,36.67-.24,54.89-3.05,23.61-3.65,45.55-22.09,45.93-47.31.4-26.5-22.08-45-46.49-49.06-22.81-3.76-47.49-3.66-68.74,6.56-11.9,5.72-22,17.19-25.56,30A40.45,40.45,0,0,0,245.38,126c5.4,9.62,14.07,15.89,24.34,19.59,9.5,3.41,20.47,3.84,30.52,4.49a153.42,153.42,0,0,0,25.45-.47c21-2.14,42.95-5.38,58.85-20.69,11.61-11.19,16.35-29.09,12.13-44.58C392.81,70.22,382.88,59.82,371,51.86c-16.46-11-37.77-16.68-57.43-17.19-15.87-.41-32.28,6.84-40,21.22C263.05,75.52,271,98.65,289.46,110.1c10.34,6.43,23.67,8.37,35.57,8.83a89.53,89.53,0,0,0,31.21-4.32c12.94-4.33,25.3-11.66,32.41-23.77a43.08,43.08,0,0,0-5.78-51.72C373.25,29,360.08,25.55,346.7,24.32a59.48,59.48,0,0,0-24.72,3c-13.74,4.94-24.93,13.37-30.72,27.11A46.4,46.4,0,0,0,294.43,97c11.43,18.42,33.86,28.84,54.23,33.83,19.24,4.7,40,5.41,59.31.9,27.79-6.46,49.75-34.73,37.71-63.25C436.2,46,411.94,37.15,390.7,29.1a217.82,217.82,0,0,0-46.31-11.91c-8.56-1.23-16.95-2.77-25.58-1.79-12.2,1.38-22.93,4.16-32.84,11.82-22.2,17.15-24.57,51-3.3,70.28,15.17,13.74,35.65,17.2,55.42,18.15s42.21-4.54,55.55-20.14c13.15-15.39,16.77-34.41,7.66-52.87-4.89-9.91-14.2-17.49-23.57-23C342.52-.92,283.17-14.76,258.07,27.74c-12.18,20.62-10,45.05.46,65.76,7.33,14.52,19.86,27.27,32.62,37.21A187.2,187.2,0,0,0,339.2,158c15.25,6,31.21,8.86,47.46,10.57,15.86,1.66,32.85,1,48.35-2.7,24.86-6,44.36-26,45.47-52.07,1.15-27.14-21.41-51.5-49.23-49.59a66.15,66.15,0,0,0-56.66,90.94c7.66,18.16,24.25,32,43.46,36.75,17.29,4.28,38.46,2.61,53.07-8.49,4.75-3.6,9.3-7.12,12.38-12.37a34.18,34.18,0,0,0,4.09-22,32.66,32.66,0,0,0-6.79-16.32c-4.88-6.32-10.42-9.49-17.92-12.36-23.32-8.93-50.51,4.9-62.57,25.22-10.06,16.95-11.93,40.73-5.23,59.23,4.41,12.16,11.58,22.71,22.72,29.69a50.17,50.17,0,0,0,39.05,5.91c28.18-7.73,41.55-41.36,26.24-66.31-7.93-12.92-22.57-21.18-37.83-20-14.48,1.07-25.85,8-36.85,16.82-17.31,13.9-28,36.77-21.54,58.91,7.42,25.56,33.15,37.34,57.57,39.83,25,2.54,54.27-8.64,61-35.29,6-24.07-4.59-47.29-24.86-60.69-14.36-9.5-34.93-12.63-51.18-6.45-19.69,7.49-35.5,23.91-40,45-3.95,18.33-1.48,37.93,9.67,53.44,11.33,15.78,27.85,27.94,47.21,31.74,21.52,4.23,45.31.77,61.3-15.57,18.6-19,22-52.12,2.65-72-13.17-13.49-33.37-17.14-50-7.51-14,8.1-21.44,22.7-22.52,38.38-1,14,4.94,26.81,13.73,37.24,9,10.73,22.18,16.17,35.9,17.3,25.46,2.1,49.35-16.92,56.62-40.68,7-23-1.68-50.24-20.11-65.52-9.59-8-19.12-12.65-30.81-17.05-6.57-2.47-13.32-4.42-19.82-7.07l8.24,3.48a59.85,59.85,0,0,1-13-7.4l7,5.39a63.94,63.94,0,0,1-9.54-9.85l5.39,7c-6-7.87-10.65-16.6-16-24.93a158.47,158.47,0,0,0-87.53-67.43l-18.35,66.54c8.13,1.41,15.65,2.48,23.76-.09a49.7,49.7,0,0,0,20.27-11.66,53.73,53.73,0,0,0,15.17-27.25c2.77-13.72,1.3-27.93-6.18-40a73.22,73.22,0,0,0-24.67-23.89c-8.32-5.06-17.68-8.41-26.67-12-8.25-3.32-16.53-6.59-25-9.32-17.58-5.66-37-9.51-55.5-7.6-24,2.47-46.82,10.38-64,28.1a34,34,0,0,0-9.49,29c1.33,9.85,6.93,20.76,16.47,25.21,6.82,3.17,13.08,5.35,20.7,5.49a42,42,0,0,0,21.18-6C267.8,80,276.24,66.21,275.76,51.5c-.47-14.37-10.3-30.16-25.33-33.26-23.88-4.95-48.84-4.56-71,6.58-9.76,4.91-19.24,13.66-24.28,23.37-3.71,7.13-6.19,15-6.1,23.14.08,6.92,1.94,13.11,3.44,19.69l-1.23-9.17a12.56,12.56,0,0,1,.18,3.24l1.23-9.17A23.72,23.72,0,0,1,151,82l3.48-8.24c-6.64,14.3-13.69,28.62-8.19,44.88,6,17.79,21.69,29.92,40.74,29.43,23.87-.62,44-23.53,37.34-47.58C219.81,84,202,73.32,186.3,69c-27.1-7.42-64.24,2-70.58,33.3a49.14,49.14,0,0,0,13.83,45.34c9.11,8.8,21.24,13.44,33.49,15.64,9.32,1.68,18.16,1.46,26.59-3.48,7.15-4.18,14-12.39,15.85-20.61,2-8.84,1.58-18.75-3.48-26.59-4.61-7.16-11.9-14.29-20.62-15.85a68.75,68.75,0,0,1-11.83-3l8.24,3.48a31.37,31.37,0,0,1-5.25-2.86l7,5.39a21.37,21.37,0,0,1-3-2.86l5.4,7a21.52,21.52,0,0,1-2-3.46l3.48,8.24a20.3,20.3,0,0,1-1.05-3.83l1.23,9.18a12.27,12.27,0,0,1,0-2.57l-1.23,9.17a10.35,10.35,0,0,1,.51-2.46l-3.48,8.25a9.27,9.27,0,0,1,1.14-2.24l-5.39,7a9.22,9.22,0,0,1,2-2.05l-7,5.4a13.2,13.2,0,0,1,2.73-1.56l-8.24,3.47a36.44,36.44,0,0,1,7.47-1.92l-9.17,1.23a43.06,43.06,0,0,1,9.08,0l-9.17-1.23a41.76,41.76,0,0,1,10.22,2.8l-8.25-3.48a41.56,41.56,0,0,1,7.79,4.67l-7-5.39,1.17,1-8.87-33.57a3.75,3.75,0,0,1-.48,1.7L160.82,94l-.49.68,5.39-7-.63.56,7-5.4-.75.44,8.24-3.47a6.17,6.17,0,0,1-1.73.52L187,79.11a7.19,7.19,0,0,1-1.91,0l9.17,1.23a7.61,7.61,0,0,1-1.89-.42l8.24,3.47a6.21,6.21,0,0,1-1.68-.91l7,5.4-.7-.64,5.39,7a7,7,0,0,1-1.29-2.18l3.48,8.24-.43-1.49L213.6,108a11.32,11.32,0,0,1-.15-3.13l-1.23,9.18a26.12,26.12,0,0,1,1.71-6.33L210.46,116c3.14-6.82,7.29-13.48,8.66-20.93a54.51,54.51,0,0,0-.07-22.36c-.57-2.71-1.54-5.31-2.07-8l1.23,9.17a19.89,19.89,0,0,1-.05-3.7l-1.24,9.17a21.49,21.49,0,0,1,.85-3.43l-3.48,8.24A22.1,22.1,0,0,1,216.6,80l-5.39,7a28.93,28.93,0,0,1,4.43-4.42l-7,5.39a41.28,41.28,0,0,1,8.08-4.64l-8.24,3.48a53.7,53.7,0,0,1,12.58-3.21l-9.17,1.24a93.27,93.27,0,0,1,22.09,0l-9.17-1.23q3.66.51,7.27,1.26L206.76,51.5l0,1.16L208,43.49a5.91,5.91,0,0,1-.6,2.17l3.48-8.24-.58,1,5.39-7a7.91,7.91,0,0,1-1.61,1.66l7-5.4a7.9,7.9,0,0,1-2,1.14l8.24-3.47a7.43,7.43,0,0,1-2.23.49l9.17-1.24-1.13,0,9.17,1.24-1.1-.26L249.43,29l-1.05-.49,7,54.18a64.63,64.63,0,0,1,5.54-5.06l-7,5.39a63,63,0,0,1,12.84-7.57l-8.25,3.48a77.13,77.13,0,0,1,19-5.1l-9.17,1.23a95.1,95.1,0,0,1,23.72.2L282.87,74c19.63,2.84,38.27,10.3,56.47,17.91l-8.24-3.48a77.66,77.66,0,0,1,16.57,9.11l-7-5.39a39.45,39.45,0,0,1,6,5.94l-5.39-7A30.31,30.31,0,0,1,344.67,97l-3.48-8.24a24.84,24.84,0,0,1,.92,3.38L340.88,83a24.86,24.86,0,0,1,.06,5.91l1.23-9.17a27,27,0,0,1-1.55,5.71l3.48-8.24a24,24,0,0,1-2.93,4.92l5.4-7a23.29,23.29,0,0,1-2.33,2.33l7-5.39a19.23,19.23,0,0,1-2.68,1.7l8.24-3.47a16.47,16.47,0,0,1-3,.94L363,70a16.06,16.06,0,0,1-3.25.07l9.17,1.23-1.13-.2c-9.36-1.62-18.11-1.48-26.59,3.48-7.15,4.19-14,12.4-15.85,20.62-4.31,18.91,5.7,36.48,24.09,42.44,3.49,1.13,6.91,2.39,10.3,3.79L351.47,138a130,130,0,0,1,28.31,16.63l-7-5.4a130,130,0,0,1,22,22.19l-5.39-7c11.64,15.36,19.28,33.46,33.18,47.18,9.68,9.55,20.45,15.11,32.86,20.11,7.66,3.08,15.64,5.26,23.27,8.44l-8.24-3.48A57.78,57.78,0,0,1,482,243.2l-7-5.39a39,39,0,0,1,6.31,6.41l-5.39-7a39.72,39.72,0,0,1,3.77,6.58l-3.47-8.24a36.38,36.38,0,0,1,2.06,7.23L477,233.64a32.65,32.65,0,0,1,.08,7.46l1.23-9.17a29.61,29.61,0,0,1-1.48,5.56l3.48-8.24a30.29,30.29,0,0,1-2.71,4.81l5.39-7A29.59,29.59,0,0,1,478.2,232l7-5.4a29.84,29.84,0,0,1-4.71,2.8l8.24-3.48a26.74,26.74,0,0,1-5.2,1.52l9.17-1.24a23.39,23.39,0,0,1-5.42,0l9.17,1.23a22.82,22.82,0,0,1-3.64-1l8.24,3.48a23.63,23.63,0,0,1-4.34-2.55l7,5.39a25.24,25.24,0,0,1-3.53-3.63l5.4,7a26,26,0,0,1-2.49-4.38l3.48,8.24a22.73,22.73,0,0,1-1.21-4.79l1.23,9.17a21.55,21.55,0,0,1,.07-3.68l-1.24,9.17a20.27,20.27,0,0,1,1-3.58l-3.47,8.24a11,11,0,0,1,1.38-2.34l-5.39,7a10.37,10.37,0,0,1,1.93-1.93l-7,5.39a8,8,0,0,1,2.29-1.25l-8.24,3.48,1.22-.29L480,265.78h1.25l-9.17-1.23,1.26.3-8.25-3.48,1.25.66-7-5.4a9.77,9.77,0,0,1,2,2l-5.4-7a19.29,19.29,0,0,1,2,3.42l-3.48-8.24a22.55,22.55,0,0,1,1,3.78l-1.24-9.17a24.93,24.93,0,0,1,0,4l1.23-9.17a26.11,26.11,0,0,1-1.25,5.22l3.47-8.24a26.41,26.41,0,0,1-2.6,4.75l5.4-7a24.8,24.8,0,0,1-3.87,3.93l7-5.39a31.14,31.14,0,0,1-5.08,3l8.25-3.48a36.12,36.12,0,0,1-8.61,2.28L467.3,230a45.62,45.62,0,0,1-10.51-.2l9.17,1.23a50.27,50.27,0,0,1-11.08-3.16l8.24,3.48a50.28,50.28,0,0,1-9.91-5.88l7,5.4a46.59,46.59,0,0,1-7-7.08l5.4,7a41.59,41.59,0,0,1-4.34-7.33l3.48,8.24a36.72,36.72,0,0,1-2.26-7.76l1.24,9.17a37.11,37.11,0,0,1-.05-9.18l-1.23,9.18a38.09,38.09,0,0,1,2.45-8.83l-3.48,8.24a36.83,36.83,0,0,1,3.94-6.69l-5.39,7a33.51,33.51,0,0,1,4.49-4.58l-7,5.4a30.4,30.4,0,0,1,5.51-3.36l-8.24,3.47a27.46,27.46,0,0,1,5.89-1.66l-9.17,1.23a30.13,30.13,0,0,1,7.35.1l-9.17-1.24a34,34,0,0,1,5.94,1.64l-8.24-3.48a32.83,32.83,0,0,1,6.4,3.62l-7-5.39a29,29,0,0,1,4.3,4.21l-5.39-7a25.71,25.71,0,0,1,3,5.15l-3.48-8.24a25.27,25.27,0,0,1,1.22,4.69l-1.23-9.17a26.9,26.9,0,0,1,0,4.21l1.23-9.17a21.1,21.1,0,0,1-1,4.06l3.48-8.24a12.14,12.14,0,0,1-1.29,2.41l5.39-7a10.49,10.49,0,0,1-1.84,2l7-5.4a19.11,19.11,0,0,1-3.88,2.22l8.24-3.48a46.88,46.88,0,0,1-8,1.94l9.18-1.23a52.49,52.49,0,0,1-12.21,0l9.17,1.23a51.88,51.88,0,0,1-11.78-3.19l8.24,3.48a40.78,40.78,0,0,1-6.54-3.6l7,5.39a23.24,23.24,0,0,1-4-4l5.4,7a14.16,14.16,0,0,1-1.43-2.47l3.47,8.24a19.61,19.61,0,0,1-1.14-3.88l1.23,9.17a21.39,21.39,0,0,1,0-3.92l-1.23,9.17a24.36,24.36,0,0,1,1.55-5.16l-3.48,8.24a36.6,36.6,0,0,1,3-5l-5.39,7a49.8,49.8,0,0,1,8.77-8.7l-7,5.39a57,57,0,0,1,9.34-5.67l-8.24,3.47a16,16,0,0,1,3.11-1l-9.17,1.24a9.12,9.12,0,0,1,3.21-.14l-9.17-1.23a6.77,6.77,0,0,1,1.92.58L433,218.83a7,7,0,0,1,1.62,1.06l-7-5.39a8.17,8.17,0,0,1,1.3,1.45l-5.4-7a9.59,9.59,0,0,1,1,1.75L421,202.48a16.11,16.11,0,0,1,.77,3l-1.23-9.17a17.11,17.11,0,0,1-.07,3.12l1.23-9.17a9.83,9.83,0,0,1-.53,2l3.48-8.24a12.59,12.59,0,0,1-1.55,2.65l5.39-7a9.22,9.22,0,0,1-1.75,1.55l7-5.4a11.19,11.19,0,0,1-2.24,1.19l8.24-3.48a13,13,0,0,1-2.44.66l9.17-1.23a20.75,20.75,0,0,1-3.86.07l9.17,1.23a23.14,23.14,0,0,1-3.84-.94l8.24,3.48a20.62,20.62,0,0,1-4.58-2.63l7,5.4a26.11,26.11,0,0,1-2.93-3.11l5.39,7a30.59,30.59,0,0,1-2.87-5.16l3.48,8.24a40.56,40.56,0,0,1-2.18-8.76l1.23,9.17a53.35,53.35,0,0,1,.06-12.31l-1.24,9.18a39,39,0,0,1,2.48-8.87l-3.48,8.24a34,34,0,0,1,3.12-5.26l-5.39,7a26.56,26.56,0,0,1,3.92-3.87l-7,5.39a27.35,27.35,0,0,1,4.79-2.74l-8.24,3.47a24.49,24.49,0,0,1,5.26-1.35L445.8,187a23.47,23.47,0,0,1,4,0l-9.18-1.23a21.1,21.1,0,0,1,3.9,1.09l-8.25-63.05a31.34,31.34,0,0,1-6.24,3.69l8.24-3.47a34.18,34.18,0,0,1-8.15,2.11l9.18-1.23a39,39,0,0,1-8.5-.11L440,126.1a40.68,40.68,0,0,1-8.25-2.2l8.24,3.48a38.11,38.11,0,0,1-7.41-4.13l7,5.4a33.79,33.79,0,0,1-6-5.91l5.4,7a32.3,32.3,0,0,1-3.06-5.24l3.48,8.24a31,31,0,0,1-2-7.14l1.23,9.17a35,35,0,0,1,0-7.38l-1.23,9.17A37.77,37.77,0,0,1,440,127l-3.47,8.25a39.74,39.74,0,0,1,4.47-7.5l-5.39,7a37.36,37.36,0,0,1,6.17-6.08l-7,5.39a34.38,34.38,0,0,1,6.41-3.64l-8.25,3.48a32.65,32.65,0,0,1,6-1.66l-9.17,1.23a25.6,25.6,0,0,1,6.06-.1l-9.17-1.23a12.8,12.8,0,0,1,2.91.79l-8.24-3.48a15,15,0,0,1,2.82,1.7l-7-5.4a11.89,11.89,0,0,1,1.49,1.52l-5.39-7a17.74,17.74,0,0,1,1.67,2.74l-3.48-8.24a19.62,19.62,0,0,1,1.2,4.25l-1.23-9.17a24.17,24.17,0,0,1,0,4.58l1.23-9.17a22.8,22.8,0,0,1-1.54,5.57l3.48-8.24a23.85,23.85,0,0,1-1.75,3l5.4-7a27.24,27.24,0,0,1-3.95,3.94l7-5.4a34.27,34.27,0,0,1-6.38,3.67l8.24-3.48a57,57,0,0,1-13.23,3.3l9.17-1.23a147.64,147.64,0,0,1-37-.32l9.17,1.23A151.32,151.32,0,0,1,354,90l8.24,3.48a140.8,140.8,0,0,1-29.26-17l7,5.39a120.64,120.64,0,0,1-21.15-20.73l5.39,7a63.82,63.82,0,0,1-7.42-12.4L320.24,64a45.85,45.85,0,0,1-2.63-9.18L318.84,64a35.22,35.22,0,0,1-.08-8.08l-1.24,9.17a34.69,34.69,0,0,1,2.1-7.81l-3.48,8.25a29.57,29.57,0,0,1,3.36-5.69l-5.4,7a27.45,27.45,0,0,1,3.72-3.67l-7,5.39a26,26,0,0,1,4.95-2.75l-8.24,3.48a34.72,34.72,0,0,1,4.93-1.3l-9.18,1.23a60.08,60.08,0,0,1,15.56.43l-9.17-1.24a121,121,0,0,1,28.85,8l-8.25-3.47A92.37,92.37,0,0,1,348,82.53l-7-5.4A29.44,29.44,0,0,1,345.06,81l-5.39-7a18.8,18.8,0,0,1,2.05,3.45l-3.48-8.24a9.76,9.76,0,0,1,.65,2.55l-1.24-9.17a9.18,9.18,0,0,1-.09,2.77l1.23-9.17a11.09,11.09,0,0,1-.88,2.7l3.48-8.24a15.1,15.1,0,0,1-1.48,2.47l5.39-7a28.61,28.61,0,0,1-4.05,4.11l7-5.4a32.52,32.52,0,0,1-6,3.57L350.44,45a41.52,41.52,0,0,1-9.62,2.55L350,46.27c-8,.95-15.9.23-23.82-.78l9.17,1.23a55.67,55.67,0,0,1-12.64-3.19L330.94,47a30.16,30.16,0,0,1-6.46-3.69l7,5.39A23.13,23.13,0,0,1,329,46.28l5.39,7a17.06,17.06,0,0,1-1.67-2.87l3.47,8.25a11.62,11.62,0,0,1-.63-2.16l1.24,9.17a17.16,17.16,0,0,1-.11-3.51l-1.23,9.18a15.52,15.52,0,0,1,.81-3.08l-3.48,8.24a15.33,15.33,0,0,1,1.59-2.6l-5.4,7a19.87,19.87,0,0,1,2.25-2.15l-7,5.39a25.36,25.36,0,0,1,3.81-2.21l-8.24,3.48a35.11,35.11,0,0,1,8.12-2.2l-9.17,1.23a57.17,57.17,0,0,1,14.61.31l-9.17-1.23a222.1,222.1,0,0,1,55.66,15.18l-8.24-3.48c7.09,3,14.78,6.06,20.93,10.81l-7-5.4a17.52,17.52,0,0,1,2.05,2l-5.4-7a14.86,14.86,0,0,1,2.09,3.57l-3.47-8.25.35,1.37L380,83.12a9.07,9.07,0,0,1,.12,2.44l1.24-9.17a8.7,8.7,0,0,1-.5,2.26l3.48-8.24a15.52,15.52,0,0,1-1.72,3l5.39-7a23.42,23.42,0,0,1-2.66,2.61l7-5.39a30.82,30.82,0,0,1-5.8,3.31l8.24-3.48a49.51,49.51,0,0,1-11.47,2.71L392.48,65A100.82,100.82,0,0,1,367,64.82l9.17,1.23a101.85,101.85,0,0,1-22.93-6.27l8.24,3.48a70.78,70.78,0,0,1-14.23-7.68l7,5.39A31.62,31.62,0,0,1,349,55.76l5.4,7a21.57,21.57,0,0,1-2-3.68l3.47,8.24a12.21,12.21,0,0,1-.67-2.66l1.23,9.17a11.57,11.57,0,0,1,0-2.82l-1.23,9.17a16.52,16.52,0,0,1,.89-3.31l-3.47,8.24a10.38,10.38,0,0,1,1.08-1.89l-5.4,7a18.19,18.19,0,0,1,2.25-2.39l-7,5.4a22.08,22.08,0,0,1,3.92-2.39l-8.24,3.48a32.38,32.38,0,0,1,7.17-2l-9.17,1.23a42.13,42.13,0,0,1,10.1-.11l-9.17-1.23a33.43,33.43,0,0,1,6.47,1.52l-8.24-3.48A20.27,20.27,0,0,1,339.73,92l-7-5.4a9.2,9.2,0,0,1,1.74,1.73l-5.4-7a7.68,7.68,0,0,1,1.16,2.19l-3.48-8.24.32,1.29-1.23-9.18a7.24,7.24,0,0,1,0,2.5l1.24-9.17L326.74,62l3.48-8.24a15.31,15.31,0,0,1-1.94,3.35l5.39-7A25.13,25.13,0,0,1,330.62,53l7-5.39a32,32,0,0,1-5,2.87L340.87,47a63.36,63.36,0,0,1-13.41,3.58l9.17-1.23a68.73,68.73,0,0,1-17.84.06L328,50.62a44.48,44.48,0,0,1-9.52-2.28l8.24,3.48a22,22,0,0,1-3.46-2.08l7,5.4a9.23,9.23,0,0,1-1.71-1.82l5.4,7-.57-1,3.48,8.24-.34-1.08,1.24,9.17-.07-1.13-1.23,9.17.25-1.19-3.48,8.25.51-1.06-5.4,7a5.42,5.42,0,0,1,1.62-1.58l-7,5.4,1-.55-8.24,3.47a17.64,17.64,0,0,1,3.65-.87l-9.17,1.23a59.86,59.86,0,0,1,11.19.57l-9.17-1.23a85.91,85.91,0,0,1,20.11,5.46l-8.24-3.48a69.79,69.79,0,0,1,14.6,8.19l-7-5.4a34.74,34.74,0,0,1,4.37,4.29l-5.39-7a23.89,23.89,0,0,1,2.28,3.75l-3.48-8.24a12.44,12.44,0,0,1,.82,2.73l-1.23-9.17a11.27,11.27,0,0,1,.13,2.9L330.43,88a15.13,15.13,0,0,1-.88,3.52L333,83.24a18,18,0,0,1-1.87,3l5.39-7a23.46,23.46,0,0,1-2.65,2.53l7-5.4a32.09,32.09,0,0,1-5.59,3.23l8.24-3.48c-7.06,2.94-14.8,4.13-22.33,5.18l9.17-1.23A160.18,160.18,0,0,1,289,80l9.17,1.23a48.69,48.69,0,0,1-10.09-2.12l8.24,3.48L295,81.82l7,5.39-1.15-1,5.4,7a6.13,6.13,0,0,1-1.25-2l3.48,8.25-.28-1,1.23,9.18a5.86,5.86,0,0,1,.06-2.13l-1.23,9.17.31-1.07-3.48,8.24a15.36,15.36,0,0,1,1.85-3.12l-5.4,7a26.75,26.75,0,0,1,2.91-2.82l-7,5.39a29.83,29.83,0,0,1,4.79-2.88L294,128.82c4.83-1.95,10.14-2.8,15.27-3.52l-9.17,1.23a99.31,99.31,0,0,1,24.12,0L315,125.32a59,59,0,0,1,13.7,3.3l-8.24-3.48a28.82,28.82,0,0,1,5.67,3.34l-7-5.4a21.71,21.71,0,0,1,2.56,2.69l-5.4-7a11.43,11.43,0,0,1,1.2,2.09l-3.48-8.24a10.42,10.42,0,0,1,.69,2.33l-1.23-9.18a14.78,14.78,0,0,1,0,3.64l1.23-9.18a10,10,0,0,1-.67,2.16l3.47-8.24a10.48,10.48,0,0,1-1.12,2l5.39-7a19.32,19.32,0,0,1-3.35,3.29l7-5.4a31.25,31.25,0,0,1-5.61,3L328,86.55a57,57,0,0,1-12.3,2.86l9.17-1.23a217.56,217.56,0,0,1-56.26.13l9.17,1.23a219,219,0,0,1-54.34-14.6l8.24,3.47c-5.44-2.3-11-4.54-15.72-8.1l7,5.4a33.53,33.53,0,0,1-4.11-4l5.39,7a22.72,22.72,0,0,1-2.12-3.34l3.48,8.25a10.71,10.71,0,0,1-.77-2.32l1.23,9.17a8.43,8.43,0,0,1-.14-2.35l-1.23,9.17a7.88,7.88,0,0,1,.59-2.35l-3.47,8.24a8.51,8.51,0,0,1,1.38-2.22l-5.39,7,.92-.92-7,5.39a17.21,17.21,0,0,1,3.41-2l-8.24,3.48a36.36,36.36,0,0,1,7.07-1.67l-9.17,1.23a71.74,71.74,0,0,1,18.11,0l-9.17-1.23a72.59,72.59,0,0,1,15.74,4.27L208.9,65.83,208,67l5.39-7a35.33,35.33,0,0,1-5.19,5l7-5.4a38.11,38.11,0,0,1-6.27,3.65l8.24-3.48a36.91,36.91,0,0,1-8.39,2.32L218,60.91a35.76,35.76,0,0,1-7.24.05l9.17,1.23a28.67,28.67,0,0,1-5.71-1.39l8.24,3.48a9.4,9.4,0,0,1-2.5-1.52l7,5.39-1-1.07,5.4,7-.72-1.24,3.48,8.24a7.61,7.61,0,0,1-.63-2.74l1.23,9.17,0-1.45-1.23,9.17A25.12,25.12,0,0,1,235,89.45l-3.48,8.24a51.52,51.52,0,0,1,6-10.48l-5.39,7a39.35,39.35,0,0,1,6.33-6.31l-7,5.39a35.53,35.53,0,0,1,5.12-3l-8.24,3.48a27.47,27.47,0,0,1,6.54-1.8l-9.17,1.23a30.89,30.89,0,0,1,5.44,0L222,91.91a27.4,27.4,0,0,1,5.21,1.3L219,89.73a23.56,23.56,0,0,1,4.58,2.61l-7-5.39a22.77,22.77,0,0,1,2.79,2.85l-5.4-7a18.57,18.57,0,0,1,1.72,3l-3.48-8.24a22,22,0,0,1,.9,3.39l-1.23-9.17a21.63,21.63,0,0,1,0,4.69l1.23-9.17a21,21,0,0,1-1.31,4.45l3.47-8.24a21,21,0,0,1-1.79,2.89l5.39-7a11.87,11.87,0,0,1-1.56,1.61l7-5.4a15.75,15.75,0,0,1-2.88,1.76L229.63,54l-1.09.38c-8.57,3-15.92,7.83-20.62,15.86-4.33,7.39-6.16,18.29-3.48,26.58,5.42,16.75,24.23,30.55,42.44,24.1Z"/><path class="cls-1" d="M86.59,167.33c-8,2.87-54.74,20.58-75,70.49-12.82,31.59-8.53,60.06-6,72"/><path class="cls-2" d="M318.24,104.87c9.36,32.93,20.22,65.12,42.08,92,20.75,25.55,55.45,44.41,89,41.19,9.35-.9,17.54-3.25,24.4-10.1,6-6,10.49-15.81,10.1-24.4-.4-8.92-3.33-18.18-10.1-24.39-6.37-5.85-15.42-11-24.4-10.11a63.32,63.32,0,0,1-13.83-.18l9.17,1.24a71.61,71.61,0,0,1-16.25-4.41l8.24,3.48a87,87,0,0,1-18.83-11l7,5.39a100.65,100.65,0,0,1-16.68-16.71l5.39,7a142.61,142.61,0,0,1-17.6-31.1L399.4,131c-6-14.44-10.35-29.45-14.62-44.47-4.93-17.35-24.61-29.87-42.44-24.1-17.67,5.72-29.39,23.84-24.1,42.44Z"/></g></g></g></svg>