<svg xmlns="http://www.w3.org/2000/svg" viewBox="0 0 224.79 234.79"><defs><style>.cls-1{fill:#663534;}.cls-2,.cls-3{fill:#231f20;}.cls-3{stroke:#231f20;stroke-miterlimit:10;}</style></defs><title>updo-faceAsset 14</title><g id="Layer_2" data-name="Layer 2"><g id="Updo"><g id="face_2" data-name="face 2"><path className="cls-1" d="M15.82,92.46A211,211,0,0,0,42.5,149.89c12,17.9,27,36.7,46.25,47.22,12.48,6.81,25.91,9.63,40,7.31,11.6-1.92,22.09-8.35,30.52-16.37C174,174,183.9,153.54,188.46,133.87a135.18,135.18,0,0,0-.24-62.17,127.49,127.49,0,0,0-11.08-29c-6.25-12-14.77-24.58-29.18-26.52C135.14,14.46,122,20,109.83,23.47l-34.4,9.79C61.76,37.15,47.49,39.67,38.73,52c-7.31,10.33-7.49,25.56-3.22,37.13,8.61,23.29,30.14,38.43,54.92,39.25,24.11.8,53.75-13.86,62.13-37.57,4.43-12.52,1.13-27.55-10.75-34.6a38.51,38.51,0,0,0-13.5-4.81,134.46,134.46,0,0,0-33-1.16c-10.64.91-24.89,1.78-32.72,10.31C52,72.06,54.31,89.64,67.71,97.7A38.29,38.29,0,0,0,76,101.15c.86.28,1.74.48,2.62.69s1.48.39,2.21.53c3.48.66-2-.93-2.68-1.28,2.5,1.34-3.29-2.79-3-2.5,1.65,1.47-3.07-4.61-3.51-5.64a17.53,17.53,0,0,1-1.3-9.8c.63-4.39.44-2.78.15-1.7.38-1.42,2.88-5.75.74-2.2-.67,1.13-1.63,2.12-2.26,3.27-.08.13,3.93-5,1.88-2.43-.4.49-.79,1-1.18,1.48l-2.47,3.11c-2.9,3.7-5.88,7.39-8.44,11.34-11.4,17.54-10.91,38.19-2.95,57.05,8.29,19.65,23.24,35.51,43,43.85,7.4,3.13,15.21,5,23.24,3.1,8.72-2.05,15.18-7.34,20-14.7,6.05-9.17,10.08-20.7,12.21-31.44,2.31-11.59,4.25-25.68.54-37.21-6.35-19.73-28.73-24.32-45.45-14.85-20,11.3-24.16,34.55-26.84,55.26l-4.17,32.2,33.86-19.42a82.56,82.56,0,0,1-7.63-4.27c-1.22-.77-2.39-1.6-3.58-2.42-4.13-2.83,3.77,3.31,0,0a112.69,112.69,0,0,1-11.7-11.63c-.57-.67-4.09-4-1.43-1.67s-.71-1-1.29-1.81q-2.34-3.3-4.49-6.73c-3.18-5-6-10.29-8.73-15.63-2.59-5.17-4.94-10.44-7.25-15.74-.82-1.89,1.91,4.61-.06-.18l-1.41-3.47c-1.12-2.76-2.21-5.53-3.29-8.3Q52.75,76,44.2,53.89C40.09,43.33,31.35,36.18,19.51,37.77A22.45,22.45,0,0,0,0,59.87c.24,32.1,13.31,62,31,88.28,8.91,13.23,18.85,25.79,28.85,38.21,9.2,11.43,18.88,22.53,31.57,30.25,16.55,10.06,35.84,11,54.13,5.49,18.09-5.43,34.58-14.08,45.4-30,16.66-24.58,11.28-58.86,8.06-86.53-4.19-36-12.44-70.49-36.1-99-7.55-9.09-24.12-8.39-31.82,0-8.87,9.66-8,22.12,0,31.82l1,1.23q2.3,2.88-.6-.78c1,.72,2,2.84,2.72,3.89q2.61,3.93,4.86,8.09c1.25,2.31,2.34,4.68,3.5,7,2.39,4.88-1.71-4.68.19.43.74,2,1.51,3.94,2.19,5.93a200.94,200.94,0,0,1,8.35,36c.06.38.73,5.72.27,1.85s.17,1.48.22,1.86q.59,4.85,1.06,9.71,1,9.54,1.69,19.1c.42,5.61.72,11.25.6,16.89,0,.74-.49,9.14-.62,9.12-.3-.05,1.14-5.81.12-1.54-.46,1.92-.81,3.84-1.38,5.74-.08.28-1.45,4.1-1.43,4.12l1.11-2.72c-.42.87-.87,1.72-1.35,2.56s-1,1.64-1.53,2.46c-2.57,4.09,3.58-3.12-.17,0-1.13,1-2.2,2.68-3.57,3.31,5-2.3.43-.53-.76.19s-2.37,1.34-3.58,2c-.73.37-1.47.73-2.21,1.07q-3.42,1.51.84-.34c-2.29,1.82-7.17,2.59-9.95,3.39-1.49.43-3,.82-4.51,1.17-1.3.29-5.34,1.58-.42.29-1.76.46-3.75.09-5.53.24-5.58.47,3.89,1.32-.65,0-1.4-.4-2.83-.79-4.25-1.17-4.55-1.23,4.08,2.38,0,0-1.66-1-6.78-2.85-7.5-4.69l2.19,1.67c-.78-.64-1.55-1.29-2.3-2s-1.5-1.37-2.24-2.07a153.28,153.28,0,0,1-12.82-14.25c-4-4.91-8-9.88-11.86-14.86-.67-.84-2.72-3.23.42.55-1.08-1.3-2.06-2.7-3.07-4-2.36-3.16-4.69-6.35-7-9.58-4.18-6-8.18-12.07-11.85-18.37-1.67-2.87-3.28-5.78-4.8-8.74-.76-1.47-1.49-3-2.21-4.44-.52-1.08-3.87-7.75-1.08-2.11-2.95-6-4.77-12.87-6.29-19.3-.31-1.32-.59-2.64-.85-4-.21-1.06-.4-2.13-.58-3.2q-.57-3.78.12,1.15c-1.31-3-.64-8.28-.66-11.47l-44.2,6c10.92,28.06,20.72,57.06,34.4,83.93,12.21,24,29.77,46.71,54.31,58.93,7.33,3.66,15.41,4.28,22.71,0,7.52-4.4,10.09-11.26,11.14-19.43l3.44-26.52c.28-2.21.58-4.41.85-6.63.36-2.9-.22,1.78-.27,1.9a17,17,0,0,0,.39-2.52,80.39,80.39,0,0,1,1.93-8.94c.4-1.44,1.06-2.89,1.39-4.34.49-2.15-1,2.36-1.07,2.42a13.82,13.82,0,0,0,1.09-2.25c.48-.9,3.36-4.91.85-1.8-3.27,4.05,4.22-3.36,0-.1-4,3.12,3.72-1.45-1,.58l-1.61.68q2.49-.64-.4-.2l-1.55.15-15.56-11.84c-.13-.43-.26-5.72-.23-2,0,.87.06,1.75.07,2.62q0,3.49-.21,7a21.67,21.67,0,0,1-.23,2.61s1-5.65.11-.78c-.32,1.72-.63,3.43-1,5.14-.45,2-1,4-1.59,5.9-.26.84-.53,1.67-.81,2.5-.07.2-2.17,5.11-.74,2.21,1.27-2.57,0,.09-.25.52-.52,1-1,2.1-1.54,3.14-.62,1.2-1.79,2.58-2.2,3.86,1.54-4.76,8.64-6.43,12.9-6.61s0,.4.06-.28q-2.79-1.07,0,.06c1.58.69,1.82.78.73.28-2.74-1.51-5.41-2.94-8-4.64-3.2-2.07,3.33,2.92-.51-.43-1.43-1.26-2.81-2.58-4.11-4-.44-.46-3.18-3.83-3.29-3.78.18-.09,2.61,3.74,1.38,1.69-.49-.82-1.08-1.58-1.6-2.38-.77-1.21-1.49-2.44-2.17-3.7-.46-.84-.89-1.69-1.3-2.55-.31-.63-1.79-3.7-.31-.58,1.58,3.33-.51-1.78-.78-2.69q-.72-2.4-1.21-4.84c-1.06-5.17.08,3.56-.12-.38-.07-1.4.27-3.64-.11-5,0,0-1.09,5.31-.47,3.42.15-.48.2-1,.32-1.52.28-1.1,1.85-5,.19-1.26s.15-.18.66-1.12c.67-1.25,1.41-2.46,2.18-3.65.58-.89,1.19-1.76,1.8-2.63.51-.71,3.38-4.48.74-1.06-2.53,3.27.09-.08.74-.89.78-1,1.57-2,2.34-3,4.21-5.38,8.76-10.74,10.57-17.51a27.56,27.56,0,0,0-6.44-26.54c-4.86-5.25-11.57-7.25-18.2-9-.67-.18-1.33-.44-2-.6-3-.7,5.13,2.42,3.58,1.51a29,29,0,0,1,7,7.24l2.92,10.88L94.36,92.41c1.17-1.2-4.72,3.54-4,3.07,2.84-1.88-6.87,2.1-2.64,1.14,1.22-.28,2.43-.62,3.66-.86.73-.14,1.47-.24,2.2-.38,4-.76-6,.68-2.86.37,1.91-.19,3.83-.42,5.75-.56q5.81-.45,11.63-.45c3.72,0,7.41.18,11.11.5,2.35.2,4.37,1.58-2.85-.41.61.17,1.28.19,1.9.33,1.27.28,2.72.94,4,1.08-3.3-.37-6-2.7-8.62-6.14a15.26,15.26,0,0,1-3.51-10.37V76q-.84,2.84.12.18c1.06-3.39-1.7,1.55.46-.94s-2,1.75-2.64,2.35c-2.87,2.64,3.44-2.24-1.2.76-1.58,1-3.22,1.87-4.85,2.78-.55.31-3,1.26-.22.2,3-1.13-.44.12-1,.32-1.76.61-3.55,1-5.35,1.52-2,.55-2.7-.47,1.31,0a15.64,15.64,0,0,0-2.35.2,53.29,53.29,0,0,1-5.51,0c-.62,0-3.41-.23-.14,0,3.53.28-.86-.33-1.47-.5s-1.33-.48-2-.63c-2.21-.47,2,.73,2.14,1-.25-.7-3.48-1.8-4.3-2.32-4.21-2.62,2.29,2.43-.48-.23-1.18-1.12-2.55-3.15-3.88-4,.11.07,2.53,3.79,1.44,1.8-.33-.6-.77-1.16-1.12-1.74a26.12,26.12,0,0,0-1.31-2.42c.17,0,1.53,4.45.93,2.23C78.43,75.65,78,72.4,77.4,72c.19.15.26,4.86.38,2.56,0-.47.33-3.12,0-3.49,0-.06-.59,5-.15,2.55s-.86,2.24-.88,2.27c.06-.12-4.94,6.39-7.63,6.08a9.05,9.05,0,0,0,2.22-.7c4.68-1.42,9.42-2.69,14.12-4L139,62c2.07-.59,4.19-1.08,6.25-1.72,2.47-.76-1.71.31-1.87.32-8,.54-13.44-7.47-9.6-3.32,0,0-2.65-3.89-1.41-1.71.38.66.87,1.28,1.28,1.92q1.68,2.56,3.18,5.25c.88,1.55,1.71,3.14,2.5,4.74.34.69.66,1.38,1,2.07,1.74,3.52-.27-.58-.42-1.17.87,3.41,2.55,6.71,3.56,10.12A106.23,106.23,0,0,1,146,88.91c.17.89,1.12,6.8.56,3.07-.5-3.27-.09-.61,0,.06.1,1.27.24,2.55.32,3.82.23,3.32.3,6.65.23,10,0,1.79-.13,3.58-.26,5.37-.05.77-.11,1.53-.18,2.3s-.61,5.32-.14,1.58-.44,2.33-.58,3.06c-.29,1.51-.62,3-1,4.5a105.47,105.47,0,0,1-3.29,11c-.26.72-.53,1.43-.8,2.15-1.35,3.73.19-.66.53-1.13a29.94,29.94,0,0,0-2,4.17,95.66,95.66,0,0,1-5.7,10c-.42.64-.87,1.27-1.29,1.91-2.13,3.27.24-.44.75-.82-1.31,1-2.43,2.92-3.55,4.11s-2.15,2.2-3.3,3.23c-.6.54-3.16,2.78-.67.67s-.22,0-.83.41c-.84.53-1.8.93-2.61,1.5-1.84,1.31,1.63-.7,2-.71-1.34,0-3.82,1.09-5.06,1.49-2.51.8,2.19-.53,2.07-.25a19.77,19.77,0,0,1-3.13.07c-.73,0-3.26-.42-.1.13,3.42.6-.16-.1-.84-.26-.9-.21-4.32-1.88-5.23-1.63.55-.15,4.68,2.37,1,.32-.7-.4-1.42-.76-2.13-1.16-1.66-.94-3.23-2-4.83-3-.46-.3-2.59-2-.38-.2,2.63,2.19-1.46-1.25-1.59-1.36a133.44,133.44,0,0,1-16-17c-.53-.66-1.05-1.33-1.59-2-1.63-2,.85,1.16.93,1.2-1.22-.65-2.67-3.63-3.5-4.8q-3.67-5.2-7-10.64a211.53,211.53,0,0,1-11-21c-.23-.5-1.16-3.14-.21-.43,1,2.94-.21-.51-.5-1.23-.73-1.84-1.44-3.69-2.11-5.55-1.36-3.72-2.57-7.49-3.7-11.29C55.86,69.23,43.26,61,31.53,64.79,20.12,68.48,12.22,80.38,15.82,92.46Z"/><path className="cls-1" d="M168.85,97.42c-.54-2.76-1.93-5.38-3.09-7.94-3.22-7.07-12.1-11-19.43-11.14,2.69,0,3.49.38.45-.74-1.32-.49-2.66-.93-4-1.29a74.59,74.59,0,0,0-9.63-1.68c-1.49-.2-8.06-1.83-9.52-.88,1.4-.92,4.58,1,.06-.35-1.51-.44-3-1-4.5-1.45-6.51-2-13.67-4.08-20.51-4.35-10.82-.44-20.27,6.29-25.59,15.31-6,10.14-2.64,25.12,8.08,30.78s24.39,2.76,30.78-8.07q6.3-9.91-17.71,6.42c1.25.25,2.5.51,3.74.8,2.49.57,5,1.22,7.41,2,5.62,1.66,10.71,3.19,16.63,3.79,1.17.12,5.66-.24,6.46.48l-2.62-.41c1.11.17,2.22.39,3.32.64,6,1.39,10.76,4,17.17,4L126.9,112.19l-1.44-2.8c2.25,11.57,16.73,19.25,27.68,15.71,12.33-4,18.12-15.27,15.71-27.68Z"/><path className="cls-2" d="M91.68,55.43Q79.07,56.71,66.2,57.87,48.92,59.43,32,60.69L25.65,64.6C17.27,75.38,12,80.44,8.56,83c-.67.5-2.66,2-2.34,2.81.42,1.16,4.82.62,8.6-.06a24.74,24.74,0,0,1,7.37-7.26A25.69,25.69,0,0,1,33,74.88c8.38-1,30.83-2.13,60.87-2.36Q92.8,64,91.68,55.43Z"/><path className="cls-2" d="M130.34,46.93,145.6,59.51a115,115,0,0,1,43.46-20.6L181.72,24a103.51,103.51,0,0,0-51.38,22.92Z"/><path className="cls-2" d="M221.89,138.66c-1.6,15.33-3.17,31.17-7.29,46.07-3.06,11.1-10.77,20.36-19.47,27.62-.61.51,2.08.26,2.63-.2,8.77-7.32,16.61-16.71,19.7-27.92,4.14-15,5.72-30.93,7.33-46.35,0-.39-2.81-.11-2.9.78Z"/><path className="cls-2" d="M91.16,209.2a60.32,60.32,0,0,0,65.64,23.34c1.79-.51,1.24-2.59-.56-2.08a57.44,57.44,0,0,1-62.43-22.57c-.78-1.12-3.53,0-2.65,1.31Z"/><path className="cls-3" d="M134.06,187.39c.56-9.85,4.57-13,6-13.89,2.48-1.61,5.74-2.06,12.26-3,5.52-.75,6-.26,7.75-1.26,3.67-2.14,2.91-5.29,7.22-9.6a16.77,16.77,0,0,1,7.16-4.58c5.43-1.55,12.4.12,13.11,2.46C188.54,161,177.29,169,134.06,187.39Z"/><path className="cls-3" d="M153.43,190c6.73-1,16.24-2.37,24.36-9.67,8.58-7.71,13.3-20,10.75-22.13-2.37-2-9.32,6-27.89,16.37-16.79,9.32-27.4,11.8-26.86,14.26S145.91,191,153.43,190Z"/><g id="nose"><path className="cls-2" d="M123.17,195.24A79.53,79.53,0,0,0,153.43,190,85.83,85.83,0,0,0,185,168.5a86.15,86.15,0,0,1-19.75,12.24c-9.87,4.36-18.38,5.78-26.1,7.06a145.22,145.22,0,0,1-15,1.71Z"/><path className="cls-2" d="M137.46,189.63a.65.65,0,0,0,0,.14A.33.33,0,0,0,137.46,189.63Z"/><path className="cls-2" d="M148.64,188.5l-.12.08C148.61,188.56,148.63,188.53,148.64,188.5Z"/><path className="cls-2" d="M130.77,190.15a.06.06,0,0,1,0,0l-.47,0Z"/><path className="cls-2" d="M171.91,181.2l-.13.07C171.84,181.24,171.89,181.23,171.91,181.2Z"/><path className="cls-2" d="M158.29,186.27c0-.07.09-.11.16-.15C158.35,186.14,158.29,186.17,158.29,186.27Z"/><path className="cls-2" d="M126.93,187.67l.28.17C127.2,187.76,127.09,187.68,126.93,187.67Z"/><path className="cls-2" d="M122.66,193h0S122.67,193,122.66,193Z"/><path className="cls-2" d="M123.85,190.49c0-.07,0-.16,0-.25C123.8,190.32,123.78,190.43,123.85,190.49Z"/><path className="cls-2" d="M123.78,190.11l0,.13C123.81,190.18,123.81,190.13,123.78,190.11Z"/><path className="cls-2" d="M124.24,192.85c-.18,0-.35.14-.52.25Z"/><path className="cls-2" d="M179.88,168.76l0-.08A.07.07,0,0,0,179.88,168.76Z"/><path className="cls-2" d="M124,194.51l-.13,0A.24.24,0,0,0,124,194.51Z"/><path className="cls-2" d="M130.47,186.83c.17-.21.59,0,.56-.21C130.83,186.67,130.53,186.56,130.47,186.83Z"/><path className="cls-2" d="M181.36,177l-.09.1A.26.26,0,0,0,181.36,177Z"/><path className="cls-2" d="M124,194.51l.16,0a.41.41,0,0,0-.05-.09A.22.22,0,0,1,124,194.51Z"/><path className="cls-2" d="M162.82,181.59h0l0-.05Z"/><path className="cls-2" d="M161.68,181.88l.18-.17A.24.24,0,0,0,161.68,181.88Z"/><path className="cls-2" d="M123.72,193.1l-.3.15A.71.71,0,0,0,123.72,193.1Z"/><path className="cls-2" d="M150.72,187.15l.1-.06Z"/><path className="cls-2" d="M157.37,186.45h-.11S157.28,186.51,157.37,186.45Z"/><polygon className="cls-2" points="163.9 178.72 163.91 178.72 163.9 178.71 163.9 178.72"/><path className="cls-2" d="M163.57,179.11c.15,0,.29-.22.33-.39A.56.56,0,0,0,163.57,179.11Z"/><path className="cls-2" d="M164.84,178.41h0Z"/><polygon className="cls-2" points="156.14 181.34 156.14 181.35 156.14 181.34 156.14 181.34"/><path className="cls-2" d="M157.85,180.74l.15,0A.24.24,0,0,0,157.85,180.74Z"/><polygon className="cls-2" points="168.68 175.96 168.68 175.97 168.68 175.96 168.68 175.96"/><path className="cls-2" d="M182.05,165.48a31.82,31.82,0,0,1-4.21,3.67c-.07.53-.5.85-.9,1.23l-.33-.39-.28.38c-.24,0,.23-.27-.15-.25l0,.36c-.13-.13-1,.54-.6-.18l-1.45.94c-.33.19,0,.48-.39.6-.15-.08.08-.17-.05-.3-1.27.35-.73,1.62-1.88,2l.05-.11c-.1.22-.45.4-.41.46.39.37,0-.35.51-.27.19.39-.28.43-.09.71-.32,0-.34.3-.54.44-.5,0-.93.44-1.37.29-.12.21-.11.7-.5.92-.43-.15-.08-.31-.52-.23l.05.26c-.33.13-.31,0-.35-.07-.34.16-.12.45-.62.52l.13-.34a2.55,2.55,0,0,1-.86.47c-.06-.13.12-.21.27-.24-.4-.21-.33.35-.48.38.09.08.41,0,.37.26-.23.07-.31.54-.6.35L167,177c-.37.39-.11.4-.67.56,0,0,0-.08,0-.13-.19.45-.75.38-1.25.59l.06-.1c-.16.16-.18.42-.29.45.34,0,.29.11.42.31-.55-.21-.37.71-1.1.75,0-.14,0-.36.27-.3,0-.48-.09-.82.2-1.17-.19.19-.43.37-.45.18l.09.4c-.14.07-.26.09-.36.14,0,.25.45.25.18.54s-.36-.29-.34-.1c-.45.36-.05.48-.59.57,0,0,.11-.15.16-.14-.41,0-.84.44-1.12,0,0-.12,0-.26.12-.27l0,.07c.25-.48-.29.21-.33-.23.12.23-.4.37-.64.41l.18.25c-.43,1.11-.17-.56-.86-.16-.4.36.2,0,0,.31-.34.07-.55-.13-1,.16-.17-.06-.49-.11-.62-.41-.23.24-.9.17-1,.53.58.09.37-.49,1.08-.3l-.05.36c-.4.13-.85.45-1.16.44a.19.19,0,0,1,.11.18c-.52.31-.58.67-1.17.76-.16-.26.18-.31.4-.41-.43-.11-.38.1-1,.18-.1-.23.38-.1.37-.36l-.59.27a.17.17,0,0,0,0-.05c0,.44-.47.12-.81.35-.89.26-.86.86-1.27,1.33-.17-.08-.24-.17-.21-.29.27.12.19,0,.24-.14-.29.13-.78-.22-.66-.43-.44.25.24.17,0,.38l-.67.15c.13.19.38.17.08.43a2.72,2.72,0,0,1-.81.21c0-.12-.2-.29.08-.35-.2,0-.49,0-.55.27.47.08-.64.35-.24.6l-.47-.09c.1,0,.07-.16.22-.15-.19-.29-.32.17-.46.24s-.55,0-.61-.09a.42.42,0,0,1-.55,0c-.18.11,0,.21,0,.33l-.68.12c-.08-.17-.25-.65-.16-.74-.22.22,0,.55-.36.61.14-.39-.57-.15-.34-.64a1.44,1.44,0,0,0-1.22.1c-.16.32.4.08.44.37-1,.3-.86,1.09-1.61,1.09l.2,0c-.42.24-.38.2-.59.49,0-.38-.7-.85-1.42-.64,0,.19.47.26.4.56l-.48.14s0-.09.06-.14c-.42.2-.91-.32-1,.12l-.54-.44.22.19c0,.19-.52.33-.62.41a.81.81,0,0,1-1,0c.11.13.39.42,0,.54-.1-.57-.89-.07-.92-.37-.17,0-.48-.09-.46.15l0-.36c0,.5-.55.58-1,.74,0-.7-.48.13-.78-.46,0,.48-.77.31-.79.71-.35.08-.38-.36-.49-.49l-.13.19c-.21-.19-.87-.12-1.27-.22l-.31.46-.16-.17c0,.11-.33.21-.13.34h-.2c0,.45-.25.16-.62.4a.14.14,0,0,1,0-.24c-.2,0-.15-.22-.27-.36.15.1-.61.89-.05,1,.06.17-.24.34-.44.29l-.17-.39-.18.45c-.29.1-.45-.14-.7-.16.25-.06.46-.84-.18-.75.33-.09.47-.34.64-.44-.14,0-.21,0,0-.23-.49.19-.14.27-.63.38,0-.36-.17-.46-.61-.54l.35.23a.23.23,0,0,1,0,.1c.13,0,.17.08.21.21s-.53.51-.63.3c.56.51-.84.53-.48.83,0,.11-.39.17-.45,0,.39-.31-.35-.37-.31-.63-.15.12.35.23.16.39s-.45-.16-.6-.26l.09-.07-.4-.13c0,.19.4.27.06.4-.1-.07-.45.06-.45-.09.15-.26,0-.58.29-.66-.25,0-1,.16-.69.47h-.3c.2.14.75.36.16.46v-.07l-.4.31-.2-.17c0,.09-.07.18-.27.19s-.28-.13-.29-.27c-.62.06-.52.24-.56.35-.32,0-.48,0-.4-.24a6.76,6.76,0,0,1-1.75-.07c-.55.2.18.06,0,.32a2.39,2.39,0,0,0-1.3-.27,19.82,19.82,0,0,0-.19,2.29c.55,0,0,.32.45.75-.13-.32-.56.74-.56-.21l0,.57c-.35.28,0-1-.54-.62-.1.7.41,1.34.1,2-.36-.24.06.43-.34.23-.12-.14-.06-.26-.06-.45a.45.45,0,0,1-.09.1c-.28,1,.4.36.58.92,0,.61-.38.43-.56.43s-.09.4,0,.57c-.18-.41.35-.64.57-.43-.48.19-.18.89,0,1.08.61-.78.12-.59.75-1.32-.12-.13-.51-.18-.27-.64.14.34.22,0,.3-.06-.24.05,0-.32-.11-.53.21-.12.47.42.65-.11l-.51-.24c.12-.21.37.2.33-.31.23.33.43.08.42.68.55-.54-.07-1.11-.15-1.85,0,.08.09.13.11.2a1.21,1.21,0,0,1-.07-.62c.18-.3.18.47.33.45l.08-.59a.05.05,0,0,1,0,0c0-.21-.06-.4.07-.34a6,6,0,0,0,.38.73c-.09-.28-.16-.57-.24-.88.11.16.22,0,.32.1s0,0,0,0a.68.68,0,0,1,0,.21s0-.11,0-.13l.61-.1.32.34c.13-.07.1-.14-.16-.17.27.07.91-.7,1.06,0,.51-.34.75-.24,1.54-.49-.6.39.76.36.11.57.4.13.45-.27.75-.36.3.13.21.5-.09.66l.35-.2v.07l.3-.23c.36.16.11.35.46.37l0-.33.25.17c-.1-.14.1-.23.35-.28v.07l.31-.09c-.29.23.28,0,.17.28a2.75,2.75,0,0,0,.74-.12l-.11-.21c.6-.26.06.32.57.28l-.06-.25c.77.34,1.2-.38,1.77-.18-.3.1-.19.38-.19.31a4.68,4.68,0,0,0,1.64-.55.91.91,0,0,0,.8.54c.35-.07.4-.11.48-.34.37.09,1-.22,1,0,0-.22.32,0,.48-.21l.06.1-.07-.24c.7.46,1-.48,1.67-.09l-.09.08.24-.14c.06.1,0,.19,0,.33l1.21-.15-.27-.15c.25-.07.37-.34.69-.23-.42.45.4-.05.52.22l-.24.14c.35-.08.35-.08.28-.33.44-.16.39.43.77.09l-.3,0c-.12-.13.06-.38.26-.4s.22.11.07.17c.34-.16.9-.12,1-.25a.18.18,0,0,1,.09.32c.73-.36.35,0,1.08-.37l0,.14.23-.22.43.23-.17-.15a1.45,1.45,0,0,1,.7-.18l-.08.23c.69-.25.9.2,1.52-.24.05,0,0,.12-.09.16.57-.45.56.28,1.11-.25,0,.08.06.15,0,.22l.26-.2,0,.28.14-.46.24.25.09-.16c.42.47.77,0,1.28.28l-.15-.34c.89-1,2.53-.17,3.73-.86l0,.29.44-.47c.34.14-.11.28,0,.4.53-.31.12-.47.75-.74.39.09-.05.24-.18.38a5,5,0,0,1,1.91-.71s0-.1,0-.11a6.58,6.58,0,0,1,1.38-.46c0,.13-.07.19-.17.25.16,0,.41,0,.51-.19l-.09.29c.36-.06.94-.51,1.11-.26-.08-.09-.13-.3.17-.39.31.37.74-.45,1.29-.41,0,.12-.36.27-.26.24.27,0,.42-.25.57-.45v.19c.34-.22.68-.42,1-.64.32.34,1-.47,1-.14.39-.14-.4-.05.07-.3.2.12.41-.26.5,0l0,0,.33-.16-.1.35a.71.71,0,0,0,.3-.74c.34,0,.68-.26.91-.07l-.08.1c.73-.43,1.6.15,2-.56.06,0,.09.08,0,.12l.49-.2,0,.24.65-.66,0,.13a13.82,13.82,0,0,0,2-1l-.06.11c.61-.56.75-.23,1.2-.65a.11.11,0,0,1,0,.09l.47-.26,0,.18c.2-.46,1.18-.18.84-.29.13-.23.39-.56.36-.75.49-.29.21.1.58,0s.32-.45.87-.62l.06.13c.22-.15.31-.33.61-.53l0,.11c.36-.56.86,0,.94-.8.27,0,.63-.36.77-.1.53-.56,1-.94,1.53-1.45.36.33.12-.11.65-.13l-.17-.19c.85-.61,2.2-.77,3.09-1.54l.17.19,0-.36a31.52,31.52,0,0,0,3.22-2.15,2.61,2.61,0,0,1,.83-1.11l0,.07.47-.51-4.63-4.94a6.06,6.06,0,0,1-1.38,1.44c0-.11-.15-.1-.13-.22.05.35-.37.39-.51.52l.3,0c0,.36-.44.46-.66.42l-.1.48a.19.19,0,0,1-.13,0l0,.15-.39-.09c0,.12-.35.56-.25.91-.11,0-.45.15-.27-.1l-1.16.94.25-.07c.19.17,0,.6-.28.67.09-.36-.22-.28-.45-.34-.06.24.29,0,.3.23s-.42.72-.6.72l0-.17c-.19.3-.61.07-.85.31-.09.36-.39.37,0,.66-.28.35-.33-.12-.47-.06,0,.3-.58.6-.78.48.23.65-1.06.59-.8,1.05h-.47a.54.54,0,0,1,0,.65c-.31.06-.42-.18-.57-.25l.18.54c-1.61.55-3.08,2.11-4.79,2.72a10.81,10.81,0,0,1-2.07,1.72l.05-.11-.85.36.69-.15a1.59,1.59,0,0,1-.38.43,9.39,9.39,0,0,0-3.16,1.64c-.38.94-.72-.22-1.17.54a2.13,2.13,0,0,0,0-.25,10.9,10.9,0,0,0-1.52,1.58c-.19-.59-.47.25-.55-.07l0,.25c-.23,0-.64.09-.66-.1l-.19.44-.14-.21c-.44.19-1.27.84-1.72.47a7.9,7.9,0,0,1-1.86,1.13c-.73.32-1.53.57-2.24.81-.11.27-.51.46-.82.6l-.45-.16c-.29.2-.5.69-.87.62a.09.09,0,0,1,0-.09c-.31.18-.67.15-.89.52-.37.1-.78.07-.76-.24.13.49-.79.19-.79.19s-4.74,1.29-10.14,2.27-11.43,1.64-13.9,3c-.16.25-.62.41-.45.71-.36.08-.51-.36-.58-.11.48.17-.17.64.3,1l-.31.06c-.06.17.42-.2.34.12l.1-.46a.67.67,0,0,1,.46.33c.24-.18.39-.81.94-.53l-.16,0c.45,0,.28.3.38.38h-.1l.38.23c-.29-.16-.77.23-.52.2.54.12-.14-.12.27-.17.25,0,.18.22.17.36l.45,0c0,.22-.3,0-.11.22l.57-.24c.12.54.61-.28.89.23-.41.14,0,.18,0,.36l1-.07c.1.07-.26.18-.1.15.19.14.3-.15.41-.15.09.15.75,0,.75.32.7.2.26-.48.91-.31.1.22-.5.09-.2.29l.66-.12c-.06.11-.11.37-.36.33,1.82.17,2.93,1.22,4.57.73.26.23-.15.2-.3.39,1.17-.51,1.78.36,2.82.16l0-.22c1.55.45,3.23-.26,4.9-.34l-.23-.11c.18-.25.53-.35.78-.5.06.1-.09.5.36.3-.12,0-.33-.08-.3-.2,1.51.23,4.4-.62,6.72-1.08,3-1.09,6.34-1.93,9.15-3.33-.43.21-.46-.36-.08-.39,1.26.41,1.49-.82,2.64-.71,1.5-1,3.31-1.12,4.46-2.55l.15.21c.28,0,.25-.21.47-.37l0,.07c.59-.23,1.11-.84,1.48-.92l-.12-.26c.3-.21.28.1.52-.24l.07.13.23-.46c.23.45.91-.53,1.28-.49a8.11,8.11,0,0,1,1.67-1.33c.25.14,1-.36,1.54-.57.87-.7,2.12-1.68,3.29-2.48l-.22-.24.28-.24c0,.06.1.06.08.12.45.12.61-.6,1-.61-.33-.12-.23.12-.4.25-.34.06-.3-.36.11-.49l0,.06.11-.31c.18.18.45.12.64.3.92-.81,1.26-1.68,2.29-2.39.09.3.64-.64.77-.11.44-.64-.36-.22-.33-.71.16-.13.23-.38.38-.27s.33.12.23.26l.35-.36c.06,0,0,.12,0,.19.57-.89,1.56-1,2-1.82-.07-.18-.3.21-.37,0,.42-.89.81-.33,1.25-1.11l.05.3c.08-.31,0-.55.48-.73.26.16-.11.44-.17.7.23-.21.75-.83.39-.84.19-.34.47-.25.67-.34,0-.06-.38.11-.32-.14a7.3,7.3,0,0,0,1.47-1.25c.05.05.16.09.15.16.05-.48.32-.31.64-.46l-5.65-6A.66.66,0,0,0,182.05,165.48Z"/><path className="cls-2" d="M155.9,181.36l.24,0a.23.23,0,0,1,.05-.24Z"/><path className="cls-2" d="M166.32,177.47a.25.25,0,0,0,0-.11A.12.12,0,0,0,166.32,177.47Z"/><path className="cls-2" d="M168.51,175.8c-.14.15.05.14.16.16A.23.23,0,0,0,168.51,175.8Z"/><path className="cls-2" d="M150,183.77a.12.12,0,0,0,0-.13C150,183.7,150,183.74,150,183.77Z"/><path className="cls-2" d="M132.42,186.61l.08,0A.1.1,0,0,0,132.42,186.61Z"/><path className="cls-2" d="M133.46,186.94a.64.64,0,0,0,.19-.07A.26.26,0,0,0,133.46,186.94Z"/><path className="cls-2" d="M154.09,182.6a.25.25,0,0,0,.15-.14A.26.26,0,0,0,154.09,182.6Z"/><path className="cls-2" d="M133.84,186.78h.25v-.06Z"/><path className="cls-2" d="M132.11,186.61a1.6,1.6,0,0,1,.31,0A.27.27,0,0,0,132.11,186.61Z"/><path className="cls-2" d="M143.67,185.45h0C143.86,185.28,143.75,185.35,143.67,185.45Z"/><polygon className="cls-2" points="134.85 186.14 134.89 186.15 134.95 186.06 134.85 186.14"/><path className="cls-2" d="M131,186.62a.19.19,0,0,0,.12-.07l-.14,0A.51.51,0,0,1,131,186.62Z"/><path className="cls-2" d="M139.9,185.64a.41.41,0,0,0-.06.25C139.92,185.88,140,185.82,139.9,185.64Z"/></g><path className="cls-3" d="M124,192.4c.84-3.54,3.13-10.86,8.76-13.44,6.1-2.79,15.28.38,16.53.81,3.13,1.08,4.24,2,5.95,1.37,3.48-1.34,2.67-6.65,7.05-10.66a13,13,0,0,1,8-3.24c5.64-.4,12.11,3,12.3,5.64C182.82,176.74,170.13,182.72,124,192.4Z"/></g></g></g></svg>